<?xml version="1.0" encoding="UTF-8"?>
<svg version="1.1" xmlns="http://www.w3.org/2000/svg" width="419" height="596">
<path d="M0 0 C3.76445751 0.01142476 7.5286332 0.00458395 11.29308128 -0.00687027 C24.86307718 -0.04200731 38.40309707 -0.01141956 51.93530273 1.13574219 C52.82932297 1.2111322 53.7233432 1.28652222 54.64445496 1.36419678 C64.26667729 2.3106048 75.51329139 4.37285668 82.52514648 11.56542969 C88.61708523 19.52898817 89.06819806 28.54776305 87.82202148 38.26074219 C86.73741651 43.78553248 84.83146919 49.01528403 82.82202148 54.26074219 C82.36053711 55.49179688 81.89905273 56.72285156 81.42358398 57.99121094 C76.15330694 71.53718669 69.67827117 84.6240699 63.47436523 97.76074219 C62.04426204 100.78999151 60.6192731 103.82155182 59.19702148 106.85449219 C53.94244249 118.03668868 48.47218051 129.10115784 42.86108398 140.10839844 C38.66128334 148.38227586 34.74753168 156.7503796 30.98217773 165.23120117 C29.05121353 169.5712126 27.06865423 173.85272685 24.88452148 178.07324219 C21.82975002 184.09822397 19.63106346 189.55898822 21.82202148 196.26074219 C28.22179823 200.19800859 34.92978521 199.68476255 42.25170898 199.66699219 C44.24507474 199.68356033 46.2384405 199.70014555 48.23179817 199.717659 C51.72016485 199.74432517 55.20857146 199.75195465 58.69702148 199.76074219 C105.9125691 199.88079224 105.9125691 199.88079224 115.82202148 208.26074219 C122.36592845 215.27410335 124.25629842 221.41351858 124.06420898 230.93261719 C122.21503027 256.34391183 98.35382802 283.81183128 83.26733398 303.04589844 C80.55294342 306.55844648 78.06206041 310.21226058 75.57202148 313.88574219 C70.36593924 321.56016143 64.88994407 329.01414167 59.36889648 336.46386719 C51.15164664 347.55490933 43.13192522 358.78696859 35.19824219 370.08203125 C31.98566163 374.64496491 28.70719202 379.15254469 25.38452148 383.63574219 C20.59091607 390.10850298 16.05198126 396.73963408 11.53076172 403.40454102 C7.75862886 408.94554947 3.84613443 414.33108495 -0.21704102 419.66308594 C-2.60251634 422.82312796 -4.8568449 426.06150759 -7.11157227 429.31542969 C-10.42402897 434.0367763 -13.81716015 438.69965048 -17.19946289 443.37109375 C-20.63003811 448.11127431 -24.0385516 452.86608472 -27.42797852 457.63574219 C-32.61369449 464.92024073 -37.99378302 472.05265345 -43.38891602 479.18261719 C-46.6141695 483.4603218 -49.82648745 487.73722477 -52.89672852 492.12792969 C-53.57650757 493.09690186 -53.57650757 493.09690186 -54.27001953 494.08544922 C-55.15408193 495.35050385 -56.03237154 496.61961607 -56.90429688 497.89306641 C-57.94672064 499.38429102 -59.05669363 500.82787152 -60.17797852 502.26074219 C-60.83797852 502.26074219 -61.49797852 502.26074219 -62.17797852 502.26074219 C-62.42418945 502.82148437 -62.67040039 503.38222656 -62.92407227 503.95996094 C-67.32043984 512.02681609 -76.32460045 521.30961617 -85.17797852 524.26074219 C-89.78211941 524.79569951 -93.25865506 524.69438533 -97.49047852 522.69824219 C-102.17475536 518.44971203 -104.6868088 513.50412644 -105.41625977 507.20214844 C-105.87371976 492.53935178 -101.52892817 477.79584898 -97.39257812 463.86572266 C-95.78378576 458.44550966 -94.35574162 453.02658172 -93.11547852 447.51074219 C-91.66535594 441.09243924 -89.93336842 434.80256827 -88.03540039 428.50292969 C-86.63785151 423.85876727 -85.34387494 419.20273482 -84.11547852 414.51074219 C-82.63456482 408.86774445 -80.9947473 403.301617 -79.20532227 397.74902344 C-78.01006011 393.69058577 -77.0056952 389.59947082 -75.9921875 385.49243164 C-74.93230856 381.28564977 -73.78042475 377.1068451 -72.62744141 372.92480469 C-65.17023445 348.99408118 -65.17023445 348.99408118 -64.67797852 324.32324219 C-67.07511358 321.02718147 -70.35601197 320.18441983 -74.17797852 319.26074219 C-79.09154511 318.76041767 -84.00491299 318.68015635 -88.93969727 318.60058594 C-90.37689201 318.56628188 -91.81405199 318.53049263 -93.25117493 318.49330139 C-97.0221332 318.39856507 -100.79323511 318.31899489 -104.56463623 318.24420166 C-110.5808241 318.12402792 -116.5965503 317.98782776 -122.61207008 317.83804512 C-124.69049863 317.78952623 -126.76891196 317.7518865 -128.84757996 317.71531677 C-154.0548383 317.1271314 -154.0548383 317.1271314 -164.17797852 309.26074219 C-170.83153313 301.99373927 -172.31353597 295.91149747 -172.36547852 286.19824219 C-172.3796582 285.01101563 -172.39383789 283.82378906 -172.40844727 282.60058594 C-172.09363005 272.5460344 -169.78083975 262.92390693 -166.74047852 253.38574219 C-166.39484863 252.28206299 -166.04921875 251.17838379 -165.69311523 250.04125977 C-161.8527774 237.95152575 -157.55464333 226.0254084 -153.26226807 214.09115601 C-150.82167188 207.2928058 -148.46233875 200.46697204 -146.11547852 193.63574219 C-145.70918213 192.45326904 -145.30288574 191.2707959 -144.88427734 190.05249023 C-144.06423671 187.66465303 -143.24449401 185.27671349 -142.42504883 182.88867188 C-141.14676827 179.16994652 -139.86247917 175.45334527 -138.57641602 171.73730469 C-134.04705627 158.64671391 -129.5690045 145.54252028 -125.21508789 132.39257812 C-117.37131422 108.70615423 -109.43548373 85.05379844 -101.30610657 61.46369934 C-99.87699681 57.31194354 -98.46899682 53.15412257 -97.08422852 48.98730469 C-94.48630549 41.22838319 -91.66837782 33.73488447 -88.05297852 26.38574219 C-87.73997803 25.74846191 -87.42697754 25.11118164 -87.10449219 24.45458984 C-84.90922651 20.19943416 -82.42619051 16.74325144 -79.17797852 13.26074219 C-78.51797852 13.26074219 -77.85797852 13.26074219 -77.17797852 13.26074219 C-76.84797852 12.27074219 -76.51797852 11.28074219 -76.17797852 10.26074219 C-56.69672822 -4.5472602 -23.36323763 -0.07147534 0 0 Z " fill="#A09081" transform="translate(244.177978515625,38.7392578125)"/>
<path d="M0 0 C3.76445751 0.01142476 7.5286332 0.00458395 11.29308128 -0.00687027 C24.86307718 -0.04200731 38.40309707 -0.01141956 51.93530273 1.13574219 C52.82932297 1.2111322 53.7233432 1.28652222 54.64445496 1.36419678 C64.26667729 2.3106048 75.51329139 4.37285668 82.52514648 11.56542969 C88.734717 19.68275982 88.66038793 28.45089109 87.82202148 38.26074219 C87.07955997 42.03668931 86.11198833 45.63654963 84.82202148 49.26074219 C84.16202148 49.26074219 83.50202148 49.26074219 82.82202148 49.26074219 C83.28142079 45.97931855 83.74008101 42.7076902 84.33764648 39.44824219 C85.73270657 30.2678468 85.91049095 22.21147573 80.82202148 14.26074219 C79.89389648 14.57011719 79.89389648 14.57011719 78.94702148 14.88574219 C78.24577148 15.00949219 77.54452148 15.13324219 76.82202148 15.26074219 C75.83202148 14.27074219 75.83202148 14.27074219 74.82202148 13.26074219 C72.84202148 15.24074219 70.86202148 17.22074219 68.82202148 19.26074219 C70.02858398 19.63199219 70.02858398 19.63199219 71.25952148 20.01074219 C73.82202148 21.26074219 73.82202148 21.26074219 74.52514648 23.08105469 C75.93186036 33.40929607 68.66675075 44.72533366 63.61499023 53.11621094 C61.79520455 56.30777406 60.26032938 59.53354396 58.75952148 62.88574219 C56.18135391 68.634918 53.1706388 73.93297011 49.82202148 79.26074219 C49.30639648 80.13085938 48.79077148 81.00097656 48.25952148 81.89746094 C46.64291747 84.55519308 44.78627192 86.84752022 42.82202148 89.26074219 C41.84035163 90.59223362 40.86137301 91.92571176 39.88452148 93.26074219 C36.83152109 97.35191653 33.39966478 100.81832546 29.63452148 104.26074219 C27.67418725 106.16325606 27.67418725 106.16325606 26.94702148 108.76074219 C25.3891025 112.22278438 23.03142559 113.37696152 19.82202148 115.26074219 C19.82202148 114.60074219 19.82202148 113.94074219 19.82202148 113.26074219 C15.59495517 115.20290779 14.24738245 117.01652211 12.64233398 121.34277344 C11.20699404 124.69873493 9.05218299 127.38500761 6.82202148 130.26074219 C6.49202148 130.26074219 6.16202148 130.26074219 5.82202148 130.26074219 C6.13197018 123.85513583 7.40559111 119.54646187 10.43139648 113.92089844 C12.90625826 109.18668251 14.81145179 104.20548703 16.82202148 99.26074219 C19.25327593 93.34215715 21.71069432 87.44947648 24.38452148 81.63574219 C26.3500993 77.36061044 28.13711209 73.04344439 29.85327148 68.66308594 C30.80254161 66.30904914 31.82858239 64.00610907 32.88452148 61.69824219 C34.86267908 57.31971155 36.39179399 52.8439712 37.82202148 48.26074219 C38.48202148 48.26074219 39.14202148 48.26074219 39.82202148 48.26074219 C40.40983398 46.40449219 40.40983398 46.40449219 41.00952148 44.51074219 C41.60910943 42.75916814 42.213813 41.00934157 42.82202148 39.26074219 C43.16233398 38.22820312 43.50264648 37.19566406 43.85327148 36.13183594 C47.18070795 26.97014431 47.18070795 26.97014431 52.13452148 24.51074219 C53.35139648 24.09824219 54.56827148 23.68574219 55.82202148 23.26074219 C47.21622275 23.60930107 38.82331032 24.32468263 30.32202148 25.69824219 C10.47967203 28.80099602 -8.82687983 29.42036876 -28.84985352 28.54980469 C-42.668633 27.91615129 -42.668633 27.91615129 -56.17797852 30.26074219 C-58.67407227 30.56933594 -58.67407227 30.56933594 -61.17797852 30.26074219 C-66.27615578 25.85966263 -70.40650401 19.02095103 -71.17797852 12.26074219 C-69.99047852 9.19824219 -69.99047852 9.19824219 -68.17797852 7.26074219 C-67.51797852 7.26074219 -66.85797852 7.26074219 -66.17797852 7.26074219 C-66.17797852 6.60074219 -66.17797852 5.94074219 -66.17797852 5.26074219 C-59.02336893 2.79510773 -52.25810457 1.59811 -44.72094727 1.08886719 C-43.05360786 0.96949799 -43.05360786 0.96949799 -41.35258484 0.84771729 C-27.57952792 -0.03847656 -13.79556509 -0.04209902 0 0 Z " fill="#E2D9CE" transform="translate(244.177978515625,38.7392578125)"/>
<path d="M0 0 C0.99 0 1.98 0 3 0 C5.16612581 2.85928606 6.07132759 5.26747846 7 8.75 C7.33 9.8225 7.66 10.895 8 12 C8.99 12.33 9.98 12.66 11 13 C13.39112294 15.65680326 15.04519152 17.60381994 14.92578125 21.29296875 C14.68904226 22.85340962 14.40455679 24.40757182 14.06640625 25.94921875 C13.76954048 28.11923493 13.76954048 28.11923493 15.46484375 29.76953125 C15.97144531 30.17558594 16.47804687 30.58164063 17 31 C16.67 31.99 16.34 32.98 16 34 C16.38932856 36.14255793 16.38932856 36.14255793 17 38 C17.66 38 18.32 38 19 38 C19.33 38.66 19.66 39.32 20 40 C20.433125 39.34 20.86625 38.68 21.3125 38 C21.869375 37.34 22.42625 36.68 23 36 C23.99 36 24.98 36 26 36 C26.33 34.68 26.66 33.36 27 32 C27.33 32.99 27.66 33.98 28 35 C27.505 35.99 27.505 35.99 27 37 C27.66 37 28.32 37 29 37 C29.144375 37.78375 29.28875 38.5675 29.4375 39.375 C29.87798925 41.96421018 29.87798925 41.96421018 31 44 C40.40740618 48.1997349 49.7586033 48.1634351 59.9375 48.125 C60.95779297 48.12886719 61.97808594 48.13273437 63.02929688 48.13671875 C69.4125101 48.1285717 75.66324896 47.770271 82 47 C82 46.34 82 45.68 82 45 C81.31897217 44.98541748 80.63794434 44.97083496 79.9362793 44.95581055 C76.85277785 44.88137304 73.77036433 44.78469917 70.6875 44.6875 C69.0797168 44.65366211 69.0797168 44.65366211 67.43945312 44.61914062 C66.41142578 44.58369141 65.38339844 44.54824219 64.32421875 44.51171875 C62.9024231 44.47244263 62.9024231 44.47244263 61.4519043 44.43237305 C58.64839606 43.93799755 57.74403036 43.19344374 56 41 C60.26421424 40.85413532 64.52853237 40.71193511 68.79296875 40.57275391 C70.23570849 40.52519457 71.67841875 40.47673011 73.12109375 40.42724609 C108.88033948 39.20364062 108.88033948 39.20364062 121 45 C121 49.38968456 118.87194899 50.76905739 116 54 C116.763125 53.9175 117.52625 53.835 118.3125 53.75 C121 54 121 54 122.9375 55.4375 C125.21386144 60.92754819 121.91089041 67.67680528 120 73 C119.34 73 118.68 73 118 73 C117.505 74.485 117.505 74.485 117 76 C110.35999508 79.74254823 102.70891888 84 95 84 C95.13277344 83.38253906 95.26554687 82.76507813 95.40234375 82.12890625 C96.59200827 76.42372675 97.4386426 70.80069316 98 65 C97.34 65 96.68 65 96 65 C96 64.34 96 63.68 96 63 C97.64453125 61.7109375 97.64453125 61.7109375 99.8125 60.375 C100.52019531 59.92898438 101.22789062 59.48296875 101.95703125 59.0234375 C104 58 104 58 107 58 C107 57.34 107 56.68 107 56 C106.33532715 56.1539624 105.6706543 56.3079248 104.98583984 56.46655273 C101.40703933 57.10593778 97.85009464 57.33829521 94.2265625 57.53515625 C93.47377518 57.57831467 92.72098785 57.62147308 91.94538879 57.66593933 C89.50551235 57.80332988 87.06535424 57.93388904 84.625 58.0625 C83.79719025 58.10669067 82.96938049 58.15088135 82.1164856 58.19641113 C71.89321394 58.7350192 61.6769432 59.20154838 51.4375 59.25 C50.51855957 59.259104 49.59961914 59.26820801 48.65283203 59.27758789 C47.8173584 59.27364014 46.98188477 59.26969238 46.12109375 59.265625 C45.4139624 59.26336914 44.70683105 59.26111328 43.97827148 59.25878906 C41.65815927 58.95528185 40.05304237 58.09352648 38 57 C35.94337004 56.76898117 35.94337004 56.76898117 33.8125 56.75 C28.85489501 56.33208619 25.84165129 54.2449853 21.9453125 51.27734375 C19.96991448 49.7255618 19.96991448 49.7255618 17 50 C15.12505436 51.08026513 15.12505436 51.08026513 13.3125 52.5 C12.68988281 52.9640625 12.06726563 53.428125 11.42578125 53.90625 C10.72001953 54.44765625 10.72001953 54.44765625 10 55 C10 54.01 10 53.02 10 52 C8.948125 52.2475 7.89625 52.495 6.8125 52.75 C3 53 3 53 0.25 51.1875 C-0.4925 50.465625 -1.235 49.74375 -2 49 C-2.99 48.34 -3.98 47.68 -5 47 C-11.46865165 33.81390241 -8.7774135 21.65939461 -4.78125 8.12890625 C-4 6 -4 6 -2 3 C-1.34 3 -0.68 3 0 3 C0 2.01 0 1.02 0 0 Z " fill="#CBC3B8" transform="translate(232,205)"/>
<path d="M0 0 C1.1015625 1.62890625 1.1015625 1.62890625 2 4 C1.4609375 6.77734375 1.4609375 6.77734375 0.375 9.9375 C-0.19347656 11.65259766 -0.19347656 11.65259766 -0.7734375 13.40234375 C-1.17820312 14.58957031 -1.58296875 15.77679688 -2 17 C-2.76048347 19.32993762 -3.51093727 21.66317936 -4.25 24 C-4.58515625 25.03125 -4.9203125 26.0625 -5.265625 27.125 C-6.12527145 29.93982277 -6.12527145 29.93982277 -5.921875 32.6875 C-6 35 -6 35 -7.40185547 36.35791016 C-9.34185482 38.35125504 -9.84748034 39.93201191 -10.6484375 42.5859375 C-10.92921143 43.50737549 -11.20998535 44.42881348 -11.49926758 45.37817383 C-11.78825928 46.36712646 -12.07725098 47.3560791 -12.375 48.375 C-12.83072388 49.89613403 -12.83072388 49.89613403 -13.2956543 51.44799805 C-15.63718082 59.40376144 -17.63989815 67.41969729 -19.40185547 75.52294922 C-19.58506348 76.34682129 -19.76827148 77.17069336 -19.95703125 78.01953125 C-20.11147705 78.74245361 -20.26592285 79.46537598 -20.42504883 80.21020508 C-21 82 -21 82 -23 84 C-23.103125 85.175625 -23.20625 86.35125 -23.3125 87.5625 C-23.74647808 92.48895483 -25.03128347 97.03017463 -26.4375 101.75 C-26.65510986 102.4829126 -26.87271973 103.2158252 -27.09692383 103.97094727 C-28.68317782 109.19621942 -30.57446673 114.1371415 -32.9375 119.0625 C-34.50463611 122.54693816 -35.52809268 125.90161455 -36.375 129.625 C-37.80911029 135.82891358 -40.09274817 141.42968086 -42.59765625 147.26171875 C-43.65282373 150.07451898 -44.36004168 152.4571035 -44.9453125 155.359375 C-45.98077404 160.36348597 -47.82681755 164.86898449 -49.8125 169.5625 C-52.67439627 176.50007781 -55.20090705 183.42369863 -57.3425293 190.61450195 C-58.43138735 194.25131577 -59.64854119 197.75312387 -61.125 201.25 C-65.79101814 212.66002007 -66.60772142 223.82583705 -67 236 C-68.98 236.99 -68.98 236.99 -71 238 C-74.5724441 228.59208943 -73.79628501 218.83698599 -70.65625 209.40234375 C-69.95496226 206.83512969 -69.88669252 204.64856235 -70 202 C-71.9451 204.91765 -72.45276317 206.62537285 -73 210 C-73.66 210 -74.32 210 -75 210 C-74.39708057 203.16419726 -72.67724319 196.97259005 -70.625 190.4375 C-70.2748584 189.31126221 -69.9247168 188.18502441 -69.56396484 187.0246582 C-65.72296243 174.84649949 -61.40502906 162.843701 -57.08427429 150.83033752 C-54.64364955 144.03202493 -52.2843518 137.20620528 -49.9375 130.375 C-49.53120361 129.19252686 -49.12490723 128.01005371 -48.70629883 126.79174805 C-47.88625819 124.40391084 -47.0665155 122.0159713 -46.24707031 119.62792969 C-44.96878975 115.90920433 -43.68450065 112.19260309 -42.3984375 108.4765625 C-37.87362353 95.39910976 -33.39979791 82.30814563 -29.05029297 69.17138672 C-25.48316815 58.40036127 -21.90236646 47.63401805 -18.29534912 36.87628174 C-16.79188711 32.38675245 -15.30691468 27.89170792 -13.83869934 23.39053345 C-12.94746116 20.66739166 -12.04316289 17.9487132 -11.13565063 15.23095703 C-10.51168815 13.34777601 -9.90447933 11.4590704 -9.29760742 9.5703125 C-8.7326355 7.89001953 -8.7326355 7.89001953 -8.15625 6.17578125 C-7.83462891 5.19520752 -7.51300781 4.21463379 -7.18164062 3.2043457 C-6 1 -6 1 -3.99023438 0.17651367 C-2 0 -2 0 0 0 Z " fill="#A69887" transform="translate(148,102)"/>
<path d="M0 0 C8.03215634 2.98337235 11.76171187 6.59640809 16 14 C19.76783729 25.30351186 15.82258404 36.42853922 10.9375 46.625 C1.53858368 65.1353423 -10.76995641 82.48565183 -23.5546875 98.78515625 C-26.26907806 102.29770429 -28.75996108 105.95151839 -31.25 109.625 C-36.45608224 117.29941924 -41.93207741 124.75339949 -47.453125 132.203125 C-55.67037484 143.29416714 -63.69009627 154.5262264 -71.6237793 165.82128906 C-74.83635985 170.38422272 -78.11482946 174.89180251 -81.4375 179.375 C-86.23110541 185.8477608 -90.77004022 192.47889189 -95.29125977 199.14379883 C-99.06339262 204.68480728 -102.97588706 210.07034276 -107.0390625 215.40234375 C-109.42453783 218.56238577 -111.67886638 221.80076541 -113.93359375 225.0546875 C-117.24605046 229.77603411 -120.63918163 234.43890829 -124.02148438 239.11035156 C-127.45205959 243.85053213 -130.86057308 248.60534254 -134.25 253.375 C-139.43571597 260.65949854 -144.81580451 267.79191126 -150.2109375 274.921875 C-153.43619098 279.19957962 -156.64850893 283.47648258 -159.71875 287.8671875 C-160.39852905 288.83615967 -160.39852905 288.83615967 -161.09204102 289.82470703 C-161.97610341 291.08976166 -162.85439303 292.35887389 -163.72631836 293.63232422 C-164.76874212 295.12354883 -165.87871512 296.56712933 -167 298 C-167.66 298 -168.32 298 -169 298 C-169.23847656 298.55558594 -169.47695312 299.11117188 -169.72265625 299.68359375 C-171.29259847 302.53061436 -173.23920449 304.66928174 -175.4375 307.0625 C-176.61119141 308.34833984 -176.61119141 308.34833984 -177.80859375 309.66015625 C-178.53175781 310.43230469 -179.25492188 311.20445312 -180 312 C-180.54785156 312.59683594 -181.09570312 313.19367188 -181.66015625 313.80859375 C-183 315 -183 315 -185 315 C-183.56973592 310.70920776 -180.51170645 308.40372742 -177.25 305.375 C-175.74340914 303.90383382 -175.74340914 303.90383382 -175 301 C-174.0246803 299.97591432 -173.01801357 298.98165594 -172 298 C-170.7679918 296.50862166 -169.53679761 295.01652423 -168.31640625 293.515625 C-167 292 -167 292 -164.5625 289.875 C-161.28480792 286.19758938 -159.53982296 282.21312469 -157.52734375 277.7421875 C-155.94079091 274.89369621 -154.58858178 273.86717375 -152 272 C-151.0751409 270.14821831 -151.0751409 270.14821831 -150.5625 268.125 C-149.21473198 264.06680347 -147.15867916 261.90930975 -144 259 C-143.67 258.01 -143.34 257.02 -143 256 C-142.34 256 -141.68 256 -141 256 C-141 255.34 -141 254.68 -141 254 C-140.34 254 -139.68 254 -139 254 C-138.01 251.03 -138.01 251.03 -137 248 C-136.34 248 -135.68 248 -135 248 C-134.773125 247.319375 -134.54625 246.63875 -134.3125 245.9375 C-132.91437453 242.80836205 -131.18909099 240.36076623 -129.12109375 237.6484375 C-127.80867708 235.87939685 -127.80867708 235.87939685 -127 233 C-126.34 233 -125.68 233 -125 233 C-124.5359375 232.071875 -124.5359375 232.071875 -124.0625 231.125 C-123.375 229.75 -122.6875 228.375 -122 227 C-121.34 227 -120.68 227 -120 227 C-120 226.01 -120 225.02 -120 224 C-119.34 224 -118.68 224 -118 224 C-117.731875 223.26523437 -117.46375 222.53046875 -117.1875 221.7734375 C-116.02753082 219.06429894 -114.73248545 216.99883823 -113 214.625 C-109.42696744 209.63919934 -106.01844558 204.56073577 -102.640625 199.44189453 C-100.57232646 196.31859694 -98.46732707 193.23486855 -96.27734375 190.1953125 C-94.57370241 187.80495466 -93.17389883 185.66795188 -92 183 C-90.68 183 -89.36 183 -88 183 C-87.92523438 182.1440625 -87.85046875 181.288125 -87.7734375 180.40625 C-86.86499298 176.40542363 -85.0404346 173.71803154 -82.625 170.5 C-80.27071021 167.30272257 -78.10195409 164.20702677 -76.33984375 160.62890625 C-75.67662109 159.32759766 -75.67662109 159.32759766 -75 158 C-73.67405895 157.63837971 -72.34061543 157.30271961 -71 157 C-70.33026886 155.33456239 -69.66426329 153.66762601 -69 152 C-67.77790605 150.19518576 -66.50292264 148.42546758 -65.1875 146.6875 C-62.66242459 143.30545707 -60.28602351 139.93785884 -58.125 136.3125 C-57.42375 135.219375 -56.7225 134.12625 -56 133 C-55.34 133 -54.68 133 -54 133 C-53.7525 132.2575 -53.505 131.515 -53.25 130.75 C-52 128 -52 128 -50 126.0625 C-47.77484121 124.06970708 -47.77484121 124.06970708 -47 120.9375 C-45.8630169 117.59761213 -44.83617538 116.9212801 -42 115 C-41.67 114.01 -41.34 113.02 -41 112 C-40.34 112 -39.68 112 -39 112 C-38.79375 111.34 -38.5875 110.68 -38.375 110 C-36.81352113 106.59313702 -34.81561892 103.95019798 -32.5234375 101.00390625 C-31.16317296 99.2146352 -29.94549317 97.4011038 -28.75 95.5 C-28.1725 94.675 -27.595 93.85 -27 93 C-26.34 93 -25.68 93 -25 93 C-24.88785156 92.41347656 -24.77570313 91.82695312 -24.66015625 91.22265625 C-23.93609818 88.78485126 -23.01107118 87.42268653 -21.4375 85.4375 C-17.51152094 80.3711175 -13.73690111 75.20737844 -10 70 C-9.59749023 69.43990234 -9.19498047 68.87980469 -8.78027344 68.30273438 C-7.53362457 66.56110682 -6.29680471 64.81289203 -5.0625 63.0625 C-4.31097656 62.00160156 -3.55945313 60.94070313 -2.78515625 59.84765625 C-1.26492745 57.42260857 -0.42327953 55.78826995 0 53 C0.66 53 1.32 53 2 53 C2 52.01 2 51.02 2 50 C0.68 49.67 -0.64 49.34 -2 49 C-0.21418517 45.35396139 1.77024512 41.84179591 3.78125 38.31640625 C6.04267292 34.01825307 7.25670445 30.356045 7.625 25.5 C7.69976562 24.5821875 7.77453125 23.664375 7.8515625 22.71875 C7.9924112 20.13899479 8.02807544 17.58294004 8 15 C9.98 15.495 9.98 15.495 12 16 C12.33 20.29 12.66 24.58 13 29 C13.99 29 14.98 29 16 29 C15.13487051 21.43011699 14.32190913 15.34780403 10 9 C9.566875 7.8553125 9.566875 7.8553125 9.125 6.6875 C7.39337814 4.09006721 4.8988177 3.90588053 2 3 C1.01 1.515 1.01 1.515 0 0 Z " fill="#C1B7AE" transform="translate(351,243)"/>
<path d="M0 0 C1.49233459 2.98466918 0.33040374 4.68310821 -0.6875 7.8125 C-1.05746094 8.97394531 -1.42742187 10.13539062 -1.80859375 11.33203125 C-2.20175781 12.54246094 -2.59492188 13.75289062 -3 15 C-3.756677 17.33117661 -4.506986 19.66443269 -5.25 22 C-5.58515625 23.03125 -5.9203125 24.0625 -6.265625 25.125 C-7.12527145 27.93982277 -7.12527145 27.93982277 -6.921875 30.6875 C-7 33 -7 33 -8.40185547 34.35791016 C-10.34185482 36.35125504 -10.84748034 37.93201191 -11.6484375 40.5859375 C-11.92921143 41.50737549 -12.20998535 42.42881348 -12.49926758 43.37817383 C-12.78825928 44.36712646 -13.07725098 45.3560791 -13.375 46.375 C-13.83072388 47.89613403 -13.83072388 47.89613403 -14.2956543 49.44799805 C-16.63718082 57.40376144 -18.63989815 65.41969729 -20.40185547 73.52294922 C-20.58506348 74.34682129 -20.76827148 75.17069336 -20.95703125 76.01953125 C-21.11147705 76.74245361 -21.26592285 77.46537598 -21.42504883 78.21020508 C-22 80 -22 80 -24 82 C-24.103125 83.175625 -24.20625 84.35125 -24.3125 85.5625 C-24.74647808 90.48895483 -26.03128347 95.03017463 -27.4375 99.75 C-27.65510986 100.4829126 -27.87271973 101.2158252 -28.09692383 101.97094727 C-29.68317782 107.19621942 -31.57446673 112.1371415 -33.9375 117.0625 C-35.50463611 120.54693816 -36.52809268 123.90161455 -37.375 127.625 C-38.80911029 133.82891358 -41.09274817 139.42968086 -43.59765625 145.26171875 C-44.65282373 148.07451898 -45.36004168 150.4571035 -45.9453125 153.359375 C-46.98077404 158.36348597 -48.82681755 162.86898449 -50.8125 167.5625 C-53.67439627 174.50007781 -56.20090705 181.42369863 -58.3425293 188.61450195 C-59.43138735 192.25131577 -60.64854119 195.75312387 -62.125 199.25 C-66.79101814 210.66002007 -67.60772142 221.82583705 -68 234 C-69.98 234.99 -69.98 234.99 -72 236 C-77.55502192 220.84176204 -71.74760126 206.59736866 -67 192 C-66.66339355 190.95295898 -66.32678711 189.90591797 -65.97998047 188.82714844 C-62.60999777 178.378419 -59.09169788 167.99931854 -55.15478516 157.75 C-52.95338454 151.98808628 -51.00276121 146.15137004 -49.09130859 140.28759766 C-47.96340886 136.83750493 -46.79846738 133.41637463 -45.5078125 130.0234375 C-43.61109135 125.03496894 -41.98129849 119.9631215 -40.33789062 114.88671875 C-39.03624277 110.92338994 -37.63679027 107.03800668 -36.05859375 103.17578125 C-33.77509847 97.55537154 -31.88134172 91.82778352 -30 86.0625 C-27.76039937 79.22559417 -25.44990217 72.43178753 -22.96923828 65.6784668 C-21.37464216 61.27183857 -19.9073335 56.82448804 -18.4375 52.375 C-17.7461242 50.29295864 -17.05471598 48.21092804 -16.36328125 46.12890625 C-15.57549395 43.75261308 -14.78773577 41.37631025 -14 39 C-12.29015114 33.84468669 -10.57823568 28.69006482 -8.86404419 23.53619385 C-8.13526406 21.34338331 -7.40830503 19.14997451 -6.68139648 16.95654297 C-6.22779418 15.59209169 -5.77410359 14.22766975 -5.3203125 12.86328125 C-4.72114014 11.05790894 -4.72114014 11.05790894 -4.10986328 9.21606445 C-1.41914918 1.41914918 -1.41914918 1.41914918 0 0 Z " fill="#D1C6B9" transform="translate(149,104)"/>
<path d="M0 0 C0.66 0 1.32 0 2 0 C3.92493497 6.05399394 3.26895826 13.58934004 1.07421875 19.48828125 C0.10677527 21.35632665 -0.94206436 23.18167311 -2 25 C-2.35891997 26.32667454 -2.69133279 27.66074146 -3 29 C-5.45679946 36.16219504 -8.85406664 42.86003684 -12.35766602 49.55371094 C-14.45151143 53.56424425 -14.45151143 53.56424425 -15 58 C-15.66 58 -16.32 58 -17 58 C-18.91400754 61.69190788 -20.40241745 65.49288393 -21.90234375 69.3671875 C-24.04574505 74.50829952 -26.70223988 79.20511605 -29.625 83.9375 C-32.29264137 88.44721795 -33.88109712 91.76827332 -34 97 C-34.66 97 -35.32 97 -36 97 C-36.12117188 97.56589844 -36.24234375 98.13179688 -36.3671875 98.71484375 C-36.53476562 99.44832031 -36.70234375 100.18179688 -36.875 100.9375 C-37.03742188 101.66839844 -37.19984375 102.39929688 -37.3671875 103.15234375 C-38 105 -38 105 -40 106 C-40.65213292 108.02463255 -40.65213292 108.02463255 -41 110 C-41.66 110 -42.32 110 -43 110 C-44.51953709 114.91582077 -44.51953709 114.91582077 -45 120 C-45.97753644 121.02196992 -46.9805881 122.01979625 -48 123 C-49.1801947 125.03255753 -49.94136198 126.68726388 -50.375 129 C-51.23162997 131.74121591 -52.95805874 133.01993575 -55 135 C-56.23512079 137.13309192 -56.23512079 137.13309192 -57 139 C-56.34 139 -55.68 139 -55 139 C-56.12451727 141.9719385 -57.22293791 144.33440687 -59 147 C-59 147.99 -59 148.98 -59 150 C-59.99477753 152.33556463 -60.99515117 154.66875071 -62 157 C-62.144375 157.886875 -62.28875 158.77375 -62.4375 159.6875 C-63 162 -63 162 -65.0625 163.625 C-68.2533549 167.53637052 -67.3014814 172.14279962 -67 177 C-68.65 177.33 -70.3 177.66 -72 178 C-75.25601751 169.96498906 -75.25601751 169.96498906 -74.1875 165.9375 C-73.795625 165.298125 -73.40375 164.65875 -73 164 C-72.01 164 -71.02 164 -70 164 C-69.95101562 163.30132812 -69.90203125 162.60265625 -69.8515625 161.8828125 C-69.77679688 160.97273437 -69.70203125 160.06265625 -69.625 159.125 C-69.55539063 158.22007812 -69.48578125 157.31515625 -69.4140625 156.3828125 C-69 154 -69 154 -67 152 C-66.61866701 150.0085944 -66.28674418 148.00720923 -66 146 C-65.67 145.01 -65.34 144.02 -65 143 C-64.34 143 -63.68 143 -63 143 C-62.7834375 141.6078125 -62.7834375 141.6078125 -62.5625 140.1875 C-62 137 -62 137 -61 134 C-60.34 134 -59.68 134 -59 134 C-58.79503906 133.38511719 -58.59007812 132.77023438 -58.37890625 132.13671875 C-57.25260417 128.7578125 -56.12630208 125.37890625 -55 122 C-54.34 122 -53.68 122 -53 122 C-52.896875 121.175 -52.79375 120.35 -52.6875 119.5 C-51.6435134 114.18515914 -50.00926891 109.51390336 -47 105 C-46.34 105 -45.68 105 -45 105 C-44.87625 104.071875 -44.7525 103.14375 -44.625 102.1875 C-44 99 -44 99 -42 96 C-42 95.01 -42 94.02 -42 93 C-41.34 92.67 -40.68 92.34 -40 92 C-39.16111785 90.05561109 -39.16111785 90.05561109 -38.5 87.75 C-38.2421875 86.93789062 -37.984375 86.12578125 -37.71875 85.2890625 C-37.4815625 84.53367187 -37.244375 83.77828125 -37 83 C-35.38297872 78.35106383 -35.38297872 78.35106383 -33.5 76.625 C-31.20603667 74.13987306 -30.84920075 71.22696286 -30 68 C-28.85214376 65.41732346 -27.58135215 63.37202822 -26 61 C-25.34 61 -24.68 61 -24 61 C-23.88527344 60.4534375 -23.77054687 59.906875 -23.65234375 59.34375 C-22.88182627 56.57542371 -21.76947571 54.10735406 -20.5625 51.5 C-20.13066406 50.5615625 -19.69882812 49.623125 -19.25390625 48.65625 C-18.49225308 47.04277911 -17.7066842 45.43994057 -16.87890625 43.859375 C-15.67531292 41.31310644 -15.37834031 38.77449558 -15 36 C-14.01 36 -13.02 36 -12 36 C-11.9175 35.175 -11.835 34.35 -11.75 33.5 C-10.96901239 29.85539116 -9.70839259 27.17198349 -7.9375 23.9296875 C-6.97570924 21.95000153 -6.51546428 20.13434429 -6 18 C-5.67 17.20980469 -5.34 16.41960937 -5 15.60546875 C-3.59918364 11.9556855 -3.14613657 8.27674043 -2.5625 4.42578125 C-2 2 -2 2 0 0 Z M-33 71 C-31 72 -31 72 -31 72 Z " fill="#D9CDBC" transform="translate(325,60)"/>
<path d="M0 0 C1.32 0 2.64 0 4 0 C7.48640536 11.76661808 5.44290591 21.51022127 2.25 33.125 C1.87667399 34.51773042 1.50461017 35.91079976 1.13378906 37.30419922 C0.41290396 40.01008019 -0.31309495 42.71449965 -1.04296875 45.41796875 C-2.17107471 49.64030818 -3.2238221 53.87703744 -4.25 58.125 C-5.91482812 64.83542564 -7.89869566 71.41481003 -10 78 C-12.51754936 85.912298 -14.78733488 93.85618087 -16.9375 101.875 C-18.60079727 108.07126207 -20.32968849 114.19004192 -22.4375 120.25 C-25.21750245 128.29311389 -27.34943523 136.49723464 -29.50170898 144.72753906 C-30.94937734 150.23541602 -32.49858968 155.65200618 -34.34814453 161.03808594 C-37.03534684 169.12586038 -38.44453231 177.51475223 -39 186 C-40.65 186.33 -42.3 186.66 -44 187 C-44.65541324 178.40680416 -42.98999421 170.80433677 -40.7109375 162.58496094 C-39.88024661 159.56457798 -39.08031234 156.53671436 -38.28125 153.5078125 C-37.6673498 151.19252709 -37.05276468 148.87742319 -36.4375 146.5625 C-36.14480225 145.46091553 -35.85210449 144.35933105 -35.55053711 143.22436523 C-34.06848865 137.71895796 -32.47137791 132.30003044 -30.62329102 126.90698242 C-29.8127551 124.42711715 -29.26566418 121.93122101 -28.75 119.375 C-27.3927127 113.26720716 -25.61341639 107.34614894 -23.75 101.375 C-20.34741771 90.43579765 -17.44914339 79.39924504 -14.6171875 68.30078125 C-12.75564205 61.00773709 -10.75615417 53.75846968 -8.70947266 46.515625 C-7.51952589 42.29635058 -6.34092802 38.07390023 -5.16015625 33.85205078 C-3.77513848 28.90089039 -2.38768006 23.95041477 -1 19 C-0.67 19 -0.34 19 0 19 C0 21.64 0 24.28 0 27 C0.66 27 1.32 27 2 27 C2.33 23.37 2.66 19.74 3 16 C2.34 16.66 1.68 17.32 1 18 C-1.05942471 15.94057529 -0.45906816 11.84036265 -0.625 9 C-0.6765625 8.24976563 -0.728125 7.49953125 -0.78125 6.7265625 C-0.89826517 4.81990351 -0.9539329 2.90969078 -1 1 C-0.67 0.67 -0.34 0.34 0 0 Z " fill="#C3BBB1" transform="translate(189,362)"/>
<path d="M0 0 C0.99 0 1.98 0 3 0 C5.16612581 2.85928606 6.07132759 5.26747846 7 8.75 C7.33 9.8225 7.66 10.895 8 12 C8.99 12.33 9.98 12.66 11 13 C13.39112294 15.65680326 15.04519152 17.60381994 14.92578125 21.29296875 C14.68904226 22.85340962 14.40455679 24.40757182 14.06640625 25.94921875 C13.76954048 28.11923493 13.76954048 28.11923493 15.46484375 29.76953125 C15.97144531 30.17558594 16.47804687 30.58164063 17 31 C16.67 31.99 16.34 32.98 16 34 C16.33 34.66 16.66 35.32 17 36 C17.44066051 41.61842146 16.54590073 45.10403706 14 50 C9.82432399 52.08783801 4.32938308 51.50066886 -0.14453125 50.5390625 C-3.41700799 49.3678603 -4.80865187 48.4009199 -6.3125 45.25 C-6.539375 44.1775 -6.76625 43.105 -7 42 C-7.37125 40.906875 -7.7425 39.81375 -8.125 38.6875 C-10.71561869 27.76989267 -7.79728925 16.34761322 -4 6 C-3.34 5.01 -2.68 4.02 -2 3 C-1.34 3 -0.68 3 0 3 C0 2.01 0 1.02 0 0 Z " fill="#E2DBCF" transform="translate(232,205)"/>
<path d="M0 0 C3.76445971 0.01142476 7.52863766 0.00458011 11.29308796 -0.00686455 C24.85172432 -0.04200676 38.38587757 -0.01289132 51.90795898 1.11230469 C53.24349068 1.22067657 53.24349068 1.22067657 54.60600281 1.33123779 C62.44785071 2.09243924 69.55238382 4.25182423 76.82202148 7.26074219 C76.82202148 7.92074219 76.82202148 8.58074219 76.82202148 9.26074219 C71.64795789 9.46364664 67.59609721 9.50736606 62.82202148 7.26074219 C61.83202148 7.26074219 60.84202148 7.26074219 59.82202148 7.26074219 C57.93359583 7.14587959 56.04518319 7.03079818 54.15684509 6.914505 C39.69452236 6.06726007 25.22505642 6.07327996 10.74365234 6.07543945 C7.76670217 6.07552045 4.78990677 6.06860338 1.81298828 6.05493164 C-13.23876464 5.98710963 -28.24313544 6.05434026 -43.26782227 7.08496094 C-44.88739586 7.18898979 -44.88739586 7.18898979 -46.53968811 7.29512024 C-54.2506323 7.9035364 -61.38977482 9.41370618 -68.17797852 13.26074219 C-69.44602418 15.29433699 -69.44602418 15.29433699 -70.17797852 17.26074219 C-71.21925096 13.94760259 -71.36371974 12.6587591 -69.86547852 9.44824219 C-69.30860352 8.72636719 -68.75172852 8.00449219 -68.17797852 7.26074219 C-67.51797852 7.26074219 -66.85797852 7.26074219 -66.17797852 7.26074219 C-66.17797852 6.60074219 -66.17797852 5.94074219 -66.17797852 5.26074219 C-59.02336893 2.79510773 -52.25810457 1.59811 -44.72094727 1.08886719 C-43.05360786 0.96949799 -43.05360786 0.96949799 -41.35258484 0.84771729 C-27.57952792 -0.03847656 -13.79556509 -0.04209902 0 0 Z " fill="#C7BDB0" transform="translate(244.177978515625,38.7392578125)"/>
<path d="M0 0 C0.66 0 1.32 0 2 0 C4.25433614 5.56069582 4.59961828 11.0785651 5 17 C5.99 16.34 6.98 15.68 8 15 C7.85831863 16.43791516 7.71148957 17.8753237 7.5625 19.3125 C7.48128906 20.11300781 7.40007812 20.91351563 7.31640625 21.73828125 C7 24 7 24 6 27 C5.34 27 4.68 27 4 27 C3.505 24.525 3.505 24.525 3 22 C-0.20788683 33.72365971 -3.39957238 45.45162487 -6.5625 57.1875 C-6.85825928 58.28416992 -7.15401855 59.38083984 -7.45874023 60.51074219 C-9.00446469 66.25506372 -10.52488445 72.00484325 -12.01367188 77.76416016 C-14.05730656 85.65631168 -16.32501729 93.43755723 -18.8046875 101.203125 C-20.66127113 107.10050831 -22.32759236 113.04798155 -24 119 C-24.66459105 121.33393193 -25.33216571 123.666993 -26 126 C-26.66 126 -27.32 126 -28 126 C-27.14071498 118.14512398 -26.14435357 111.33682499 -23 104 C-22.35754831 100.11191577 -21.87429389 96.24378131 -21.4296875 92.328125 C-21 89 -21 89 -20 86 C-19.34 86 -18.68 86 -18 86 C-18.03480469 85.14277344 -18.06960937 84.28554688 -18.10546875 83.40234375 C-18.2652556 76.65325168 -17.8606001 72.17889622 -15 66 C-14.46115391 62.34283163 -14.19352189 58.69026231 -14 55 C-13.34 55 -12.68 55 -12 55 C-11.95101562 54.32453125 -11.90203125 53.6490625 -11.8515625 52.953125 C-11.77679688 52.06109375 -11.70203125 51.1690625 -11.625 50.25 C-11.55539063 49.36828125 -11.48578125 48.4865625 -11.4140625 47.578125 C-10.99648158 44.97809284 -10.24483432 43.29486632 -9 41 C-8.32215008 38.66989091 -7.65583207 36.33640176 -7 34 C-6.6803125 33.24460937 -6.360625 32.48921875 -6.03125 31.7109375 C-2.29009639 21.87623825 -1.35909515 10.37709121 0 0 Z " fill="#7C7268" transform="translate(185,362)"/>
<path d="M0 0 C1.9375 1.4375 1.9375 1.4375 3 4 C2.51065298 9.15771764 0.74188324 14.14761097 -1 19 C-1.66 19 -2.32 19 -3 19 C-3.33 19.99 -3.66 20.98 -4 22 C-10.64000492 25.74254823 -18.29108112 30 -26 30 C-25.86722656 29.38253906 -25.73445313 28.76507813 -25.59765625 28.12890625 C-24.40799173 22.42372675 -23.5613574 16.80069316 -23 11 C-23.66 11 -24.32 11 -25 11 C-25 10.34 -25 9.68 -25 9 C-18.65997181 3.51774033 -8.40424606 -0.72701091 0 0 Z " fill="#D5CCC2" transform="translate(353,259)"/>
<path d="M0 0 C0.33 0 0.66 0 1 0 C1.78737129 9.23848981 -0.13310318 16.89314695 -3.14794922 25.53027344 C-4.11961141 28.34670173 -5.04774613 31.17569234 -5.97265625 34.0078125 C-8.82726508 42.7130355 -11.68845283 51.35323416 -15.14086914 59.84228516 C-19.28861067 70.25937514 -19.64370868 80.9426833 -20 92 C-21.98 92.99 -21.98 92.99 -24 94 C-29.55502192 78.84176204 -23.74760126 64.59736866 -19 50 C-18.66339355 48.95295898 -18.32678711 47.90591797 -17.97998047 46.82714844 C-4.24669395 4.24669395 -4.24669395 4.24669395 0 0 Z " fill="#D1C8BB" transform="translate(101,246)"/>
<path d="M0 0 C0.66 0 1.32 0 2 0 C3.92493497 6.05399394 3.26895826 13.58934004 1.07421875 19.48828125 C0.10677527 21.35632665 -0.94206436 23.18167311 -2 25 C-2.36184377 26.32588008 -2.69452338 27.6600101 -3 29 C-6.31950296 39.2090374 -11.92711996 48.58763343 -17 58 C-17.66 58 -18.32 58 -19 58 C-19 58.66 -19 59.32 -19 60 C-19.99 59.67 -20.98 59.34 -22 59 C-21.51222158 54.2441604 -19.98086351 50.59196767 -17.98828125 46.32421875 C-16.55359311 42.9501498 -15.78054495 39.57749766 -15 36 C-14.01 36 -13.02 36 -12 36 C-11.9175 35.175 -11.835 34.35 -11.75 33.5 C-10.96901239 29.85539116 -9.70839259 27.17198349 -7.9375 23.9296875 C-6.97570924 21.95000153 -6.51546428 20.13434429 -6 18 C-5.67 17.20980469 -5.34 16.41960937 -5 15.60546875 C-3.59918364 11.9556855 -3.14613657 8.27674043 -2.5625 4.42578125 C-2 2 -2 2 0 0 Z " fill="#E3D9CA" transform="translate(325,60)"/>
<path d="M0 0 C0.33 0 0.66 0 1 0 C1.30557057 5.62476202 1.35485784 9.81232949 -1.265625 14.9296875 C-2.9507136 19.68020322 -2.78204489 25.00206388 -3 30 C-3.66 30 -4.32 30 -5 30 C-5.09796875 31.17175781 -5.1959375 32.34351563 -5.296875 33.55078125 C-6.04067293 41.62839239 -6.90450059 48.90204619 -10.046875 56.453125 C-11.68396818 60.82765269 -12.32289226 65.3938855 -13 70 C-12.34 70 -11.68 70 -11 70 C-11.6004143 73.99417236 -12.43690367 77.7594337 -13.62890625 81.6171875 C-13.94150391 82.63554687 -14.25410156 83.65390625 -14.57617188 84.703125 C-15.0644043 86.27320313 -15.0644043 86.27320313 -15.5625 87.875 C-15.89185547 88.94492187 -16.22121094 90.01484375 -16.56054688 91.1171875 C-17.37027487 93.74586967 -18.18352355 96.37340766 -19 99 C-19.66 99 -20.32 99 -21 99 C-20.67 92.73 -20.34 86.46 -20 80 C-19.34 80 -18.68 80 -18 80 C-17.86722656 79.21753906 -17.73445312 78.43507813 -17.59765625 77.62890625 C-17.42105469 76.61699219 -17.24445313 75.60507812 -17.0625 74.5625 C-16.88847656 73.55316406 -16.71445313 72.54382813 -16.53515625 71.50390625 C-16 69 -16 69 -15 68 C-14.48985609 64.44754332 -14.09805592 60.88642243 -13.6953125 57.3203125 C-13.1085581 53.06859985 -11.94413278 49.04183148 -10.77587891 44.91845703 C-9.45706714 39.95776606 -8.57055448 34.91756374 -7.625 29.875 C-5.66353654 19.70374669 -3.18495066 9.85301757 0 0 Z " fill="#897F75" transform="translate(170,418)"/>
<path d="M0 0 C0.33 0.66 0.66 1.32 1 2 C0.21625 2.804375 -0.5675 3.60875 -1.375 4.4375 C-4.16552326 7.72969036 -4.84855846 10.73555304 -5.4453125 14.94921875 C-6.1141282 17.42195284 -7.1605191 18.26789997 -9 20 C-9.495 21.155 -9.99 22.31 -10.5 23.5 C-12 27 -12 27 -13.75 28.5625 C-14.1625 29.036875 -14.575 29.51125 -15 30 C-14.835 30.886875 -14.67 31.77375 -14.5 32.6875 C-13.98603067 36.09254682 -14.13426834 36.77719046 -15.4375 39.75 C-17.45622773 44.48483413 -17.28050702 48.93009539 -17 54 C-21.22949995 56.41685712 -24.12335991 57.34833144 -29 57 C-28.5153125 56.60039063 -28.030625 56.20078125 -27.53125 55.7890625 C-25.60350745 53.53675105 -25.6116332 52.30537142 -25.5 49.375 C-24.76904658 39.85881394 -21.04219743 32.96906665 -16 25 C-13.7611379 21.31472527 -11.84213478 17.63302626 -10.25 13.625 C-7.92233936 8.17189182 -4.09644553 4.20581665 0 0 Z " fill="#82786B" transform="translate(181,505)"/>
<path d="M0 0 C0.66 0 1.32 0 2 0 C4.25433614 5.56069582 4.59961828 11.0785651 5 17 C5.99 16.34 6.98 15.68 8 15 C7.85831863 16.43791516 7.71148957 17.8753237 7.5625 19.3125 C7.48128906 20.11300781 7.40007812 20.91351563 7.31640625 21.73828125 C7 24 7 24 6 27 C5.34 27 4.68 27 4 27 C3.67 25.35 3.34 23.7 3 22 C2.83395264 22.60884033 2.66790527 23.21768066 2.49682617 23.8449707 C-0.33544922 34.22998047 -3.16772461 44.61499023 -6 55 C-6.99 55 -7.98 55 -9 55 C-8.28461251 47.92725151 -7.23882406 40.94734192 -6.0625 33.9375 C-5.89298828 32.90044922 -5.72347656 31.86339844 -5.54882812 30.79492188 C-4.81521639 26.39604084 -4.06357571 22.0407057 -2.94140625 17.72265625 C-1.996123 13.98466894 -1.38913263 10.31927098 -0.875 6.5 C-0.70742187 5.2728125 -0.53984375 4.045625 -0.3671875 2.78125 C-0.24601563 1.8634375 -0.12484375 0.945625 0 0 Z " fill="#766C62" transform="translate(185,362)"/>
<path d="M0 0 C-0.24942244 8.45542062 -1.10178926 16.48930165 -2.9375 24.75 C-3.10733398 25.5239209 -3.27716797 26.2978418 -3.45214844 27.09521484 C-4.25625203 30.54826542 -5.01463885 33.02195827 -7 36 C-7.59603275 38.10728433 -7.59603275 38.10728433 -8 40.375 C-8.69893992 43.78164418 -9.69256477 46.7749931 -11 50 C-11.37593066 51.9924325 -11.71979545 53.9918674 -12 56 C-12.66 56 -13.32 56 -14 56 C-13.37931362 49.47896158 -11.87382191 43.47283045 -10.0625 37.1875 C-6.76052695 25.7069173 -3.45654173 14.06781732 -5.5 2.0625 C-7.84289437 -1.15897976 -11.28899123 -1.97650394 -15 -3 C-18.06288905 -3.42957168 -21.09759425 -3.55247916 -24.1875 -3.625 C-33.65510107 -3.9377201 -33.65510107 -3.9377201 -38 -5 C-38 -5.33 -38 -5.66 -38 -6 C-23.88051931 -7.52938282 -12.09443716 -8.44690849 0 0 Z " fill="#91867C" transform="translate(185,361)"/>
<path d="M0 0 C0.33 0 0.66 0 1 0 C0.37309312 6.2690688 -0.88816934 12.30969593 -2.23828125 18.4609375 C-3.54317383 24.52366919 -4.68032382 30.60242866 -5.5 36.75 C-6.31026161 42.01670047 -7.72664436 47.16911927 -10 52 C-10.99 52.495 -10.99 52.495 -12 53 C-12.81656023 55.59424656 -12.81656023 55.59424656 -13.4375 58.75 C-13.82035156 60.51730469 -13.82035156 60.51730469 -14.2109375 62.3203125 C-14.47132813 63.53460938 -14.73171875 64.74890625 -15 66 C-15.51767222 68.20907649 -16.03840278 70.417439 -16.5625 72.625 C-19.11457361 83.80869431 -20.45461229 94.56121038 -21 106 C-27.03396204 95.35609097 -21.18255487 78.35700557 -18.28613281 67.26660156 C-17.29838709 63.70167878 -16.26758049 60.15113989 -15.21459961 56.60498047 C-13.60580724 51.18476747 -12.17776311 45.76583953 -10.9375 40.25 C-9.48958117 33.84145092 -7.76079271 27.56096778 -5.86621094 21.27075195 C-3.74576705 14.22266688 -1.85568503 7.12209843 0 0 Z " fill="#A9A39B" transform="translate(162,446)"/>
<path d="M0 0 C0.33 0 0.66 0 1 0 C1.02698422 2.43757413 1.04683099 4.87484915 1.0625 7.3125 C1.07087891 8.00279297 1.07925781 8.69308594 1.08789062 9.40429688 C1.10307906 12.5483025 1.00193327 14.99420019 0 18 C0.66 18 1.32 18 2 18 C1.38120598 20.75153071 0.75523814 23.50108898 0.125 26.25 C-0.04902344 27.02730469 -0.22304687 27.80460938 -0.40234375 28.60546875 C-0.57636719 29.35957031 -0.75039062 30.11367188 -0.9296875 30.890625 C-1.16534424 31.92751465 -1.16534424 31.92751465 -1.40576172 32.98535156 C-2 35 -2 35 -3.0480957 36.99731445 C-4.70882416 40.49127587 -4.32778543 44.13142792 -4.3125 47.9375 C-4.32861328 48.73607422 -4.34472656 49.53464844 -4.36132812 50.35742188 C-4.36525002 55.09115511 -3.98421593 58.10240928 -1 62 C-4.89235047 60.5235912 -6.23976259 58.73864509 -8 55 C-8.29436152 52.09390145 -8.42709899 49.46042946 -8.375 46.5625 C-8.36774902 45.7684375 -8.36049805 44.974375 -8.35302734 44.15625 C-8.184653 36.85905247 -6.79908683 30.06275176 -5 23 C-4.65447783 21.31495348 -4.32010744 19.62755875 -4 17.9375 C-2.8155499 11.92491007 -1.40238912 5.96482839 0 0 Z " fill="#948B81" transform="translate(149,499)"/>
<path d="M0 0 C0.66 0.33 1.32 0.66 2 1 C0.84371094 2.57201172 0.84371094 2.57201172 -0.3359375 4.17578125 C-1.34899285 5.55466214 -2.36201178 6.93356979 -3.375 8.3125 C-4.13683594 9.34793945 -4.13683594 9.34793945 -4.9140625 10.40429688 C-5.40390625 11.07138672 -5.89375 11.73847656 -6.3984375 12.42578125 C-6.84880371 13.03848877 -7.29916992 13.65119629 -7.76318359 14.2824707 C-8.87760643 15.83003577 -9.94215082 17.41322623 -11 19 C-11.61875 19.12375 -12.2375 19.2475 -12.875 19.375 C-15.98546938 20.28984394 -17.0692425 22.49001525 -19 25 C-19.66 25 -20.32 25 -21 25 C-21.2475 25.680625 -21.495 26.36125 -21.75 27.0625 C-23.8405899 31.97538628 -26.20454076 36.20454076 -30 40 C-31.19027984 42.59915538 -31.19027984 42.59915538 -32 45 C-32.66 45 -33.32 45 -34 45 C-34.2475 45.804375 -34.495 46.60875 -34.75 47.4375 C-36 50 -36 50 -38.125 50.8125 C-38.74375 50.874375 -39.3625 50.93625 -40 51 C-39.67 49.68 -39.34 48.36 -39 47 C-38.34 47 -37.68 47 -37 47 C-36.7525 46.2575 -36.505 45.515 -36.25 44.75 C-35 42 -35 42 -33 40.0625 C-30.77484121 38.06970708 -30.77484121 38.06970708 -30 34.9375 C-28.8630169 31.59761213 -27.83617538 30.9212801 -25 29 C-24.67 28.01 -24.34 27.02 -24 26 C-23.34 26 -22.68 26 -22 26 C-21.690625 25.01 -21.690625 25.01 -21.375 24 C-19.81352113 20.59313702 -17.81561892 17.95019798 -15.5234375 15.00390625 C-14.16317296 13.2146352 -12.94549317 11.4011038 -11.75 9.5 C-10.88375 8.2625 -10.88375 8.2625 -10 7 C-9.34 7 -8.68 7 -8 7 C-7.896875 6.38125 -7.79375 5.7625 -7.6875 5.125 C-7 3 -7 3 -4 1 C-1.8125 1.375 -1.8125 1.375 0 2 C0 1.34 0 0.68 0 0 Z " fill="#B7ACA3" transform="translate(334,329)"/>
<path d="M0 0 C1.49233459 2.98466918 0.33040374 4.68310821 -0.6875 7.8125 C-1.05746094 8.97394531 -1.42742187 10.13539062 -1.80859375 11.33203125 C-2.20175781 12.54246094 -2.59492188 13.75289062 -3 15 C-3.756677 17.33117661 -4.506986 19.66443269 -5.25 22 C-5.75273437 23.546875 -5.75273437 23.546875 -6.265625 25.125 C-7.12527145 27.93982277 -7.12527145 27.93982277 -6.921875 30.6875 C-7 33 -7 33 -8.40185547 34.35791016 C-10.34185482 36.35125504 -10.84748034 37.93201191 -11.6484375 40.5859375 C-11.92921143 41.50745605 -12.20998535 42.42897461 -12.49926758 43.37841797 C-12.78825928 44.36729004 -13.07725098 45.35616211 -13.375 46.375 C-13.67881592 47.38836426 -13.98263184 48.40172852 -14.2956543 49.44580078 C-16.64670061 57.4295751 -18.64928671 65.47526176 -20.40185547 73.61083984 C-20.58506348 74.43793457 -20.76827148 75.2650293 -20.95703125 76.1171875 C-21.11147705 76.84534668 -21.26592285 77.57350586 -21.42504883 78.32373047 C-22 80 -22 80 -24 81 C-24.2165625 79.824375 -24.2165625 79.824375 -24.4375 78.625 C-24.87798925 76.03578982 -24.87798925 76.03578982 -26 74 C-25.34790039 71.77197266 -25.34790039 71.77197266 -24.28515625 69.0390625 C-22.19432258 63.52499237 -20.2870377 57.9739307 -18.4375 52.375 C-17.7461242 50.29295864 -17.05471598 48.21092804 -16.36328125 46.12890625 C-15.57549395 43.75261308 -14.78773577 41.37631025 -14 39 C-12.29015114 33.84468669 -10.57823568 28.69006482 -8.86404419 23.53619385 C-8.13526406 21.34338331 -7.40830503 19.14997451 -6.68139648 16.95654297 C-6.22779418 15.59209169 -5.77410359 14.22766975 -5.3203125 12.86328125 C-4.92086426 11.65969971 -4.52141602 10.45611816 -4.10986328 9.21606445 C-1.41914918 1.41914918 -1.41914918 1.41914918 0 0 Z " fill="#CFC2B4" transform="translate(149,104)"/>
<path d="M0 0 C0.66 0 1.32 0 2 0 C3.27701209 3.83103626 2.4950491 4.69550382 0.7890625 8.27734375 C0.29059814 9.33832275 -0.20786621 10.39930176 -0.72143555 11.49243164 C-1.53994995 13.19774048 -1.53994995 13.19774048 -2.375 14.9375 C-3.49448187 17.30942776 -4.61296214 19.68182848 -5.73046875 22.0546875 C-6.28782715 23.23256836 -6.84518555 24.41044922 -7.41943359 25.62402344 C-9.58023349 30.23933714 -11.63323541 34.89912869 -13.6875 39.5625 C-17.41081134 47.94227284 -21.57208875 56.0357952 -25.98291016 64.07226562 C-27.42452311 66.80461701 -28.70731125 69.60986822 -29.97924805 72.42480469 C-31 74 -31 74 -34 75 C-33.49804061 68.47452797 -33.49804061 68.47452797 -31.1796875 66.265625 C-28.23815748 63.20812068 -26.96734128 59.88925836 -25.375 56 C-24.77944763 54.58299608 -24.1831168 53.16631904 -23.5859375 51.75 C-23.30733887 51.08589111 -23.02874023 50.42178223 -22.74169922 49.73754883 C-21.12723927 45.95541866 -19.1374489 42.38665476 -17.18237305 38.77148438 C-13.85882633 32.61398291 -10.68888284 26.46643533 -8 20 C-5.13427468 13.25949114 -5.13427468 13.25949114 -4.015625 11.09765625 C-2.92965519 8.85471092 -2.14176362 6.61999666 -1.375 4.25 C-1.11460937 3.45078125 -0.85421875 2.6515625 -0.5859375 1.828125 C-0.39257812 1.22484375 -0.19921875 0.6215625 0 0 Z " fill="#B8ABA0" transform="translate(322,96)"/>
<path d="M0 0 C0.33 0 0.66 0 1 0 C0.31134608 5.67756896 -0.92377086 11.09650806 -2.375 16.625 C-2.58382812 17.45773438 -2.79265625 18.29046875 -3.0078125 19.1484375 C-4.1670725 23.58755507 -5.46136501 27.13095737 -8 31 C-9.52913559 34.41363367 -10.45299145 37.72715317 -11.25 41.375 C-12.6152585 47.05307509 -14.62141481 52.24660379 -16.86914062 57.61352539 C-18.32955776 61.15191011 -19.49578238 64.55951315 -20.25 68.3125 C-21 72 -21 72 -23 74 C-22.91621094 73.13117188 -22.83242187 72.26234375 -22.74609375 71.3671875 C-22.64425781 70.21476562 -22.54242188 69.06234375 -22.4375 67.875 C-22.33308594 66.73804688 -22.22867188 65.60109375 -22.12109375 64.4296875 C-21.88696458 61.02594594 -21.88696458 61.02594594 -22.53125 57.8125 C-23.14577131 54.12537215 -22.18860483 51.49589657 -21 48 C-20.34 48 -19.68 48 -19 48 C-16.71941255 45.71941255 -16.1268899 44.00503973 -15 41 C-13.74561856 37.9766191 -12.48207436 34.95715335 -11.21875 31.9375 C-10.12435744 29.29973332 -9.05386322 26.65417404 -8 24 C-7.34 24 -6.68 24 -6 24 C-6.061875 22.989375 -6.12375 21.97875 -6.1875 20.9375 C-6.01572897 17.3303084 -5.40617938 15.18645984 -3.8671875 11.9765625 C-2.17866952 8.12795847 -1.14532999 4.03708516 0 0 Z " fill="#CEC5B7" transform="translate(123,190)"/>
<path d="M0 0 C1.4837822 4.58256545 -0.19835592 7.74489752 -2 12 C-4.35509227 17.58210801 -6.312545 22.88186179 -7.50390625 28.828125 C-8.59072619 33.58617135 -10.285782 37.928673 -13 42 C-13.4021875 43.11375 -13.4021875 43.11375 -13.8125 44.25 C-15.37080107 47.85869722 -17.49553439 50.97195274 -20 54 C-20.33 54 -20.66 54 -21 54 C-20.69005131 47.59439364 -19.41643037 43.28571968 -16.390625 37.66015625 C-13.91576322 32.92594032 -12.0105697 27.94474485 -10 23 C-6.8199546 15.25857698 -3.51397865 7.59617513 0 0 Z " fill="#CEC2B0" transform="translate(271,115)"/>
<path d="M0 0 C0.33 0 0.66 0 1 0 C0.61574888 4.36832854 0.155744 8.45947672 -1.0625 12.6875 C-3.15683891 20.45530924 -2.48599378 29.17772876 -1 37 C-0.01 36.34 0.98 35.68 2 35 C2.58348752 32.3443272 2.58348752 32.3443272 2.6875 29.375 C2.75324219 28.37210937 2.81898437 27.36921875 2.88671875 26.3359375 C2.92410156 25.56507813 2.96148437 24.79421875 3 24 C4.5 25.25 4.5 25.25 6 27 C6 28.32 6 29.64 6 31 C6.66 31.33 7.32 31.66 8 32 C7.175 32.886875 6.35 33.77375 5.5 34.6875 C3.53900524 37.01307407 3.02740522 37.74787194 2.6875 40.875 C2.790625 41.57625 2.89375 42.2775 3 43 C-1.23345479 41.48805186 -2.85664857 38.84325085 -5 35 C-6.00713722 30.45813603 -6.13436936 26.08001605 -6.125 21.4375 C-6.12757812 20.15746094 -6.13015625 18.87742187 -6.1328125 17.55859375 C-6.02078522 14.55692156 -5.70355355 11.90913811 -5 9 C-4.34 9 -3.68 9 -3 9 C-3.061875 8.2575 -3.12375 7.515 -3.1875 6.75 C-2.96846707 3.53751696 -2.15726961 2.32985118 0 0 Z " fill="#9A8E82" transform="translate(78,303)"/>
<path d="M0 0 C0.33 0 0.66 0 1 0 C0.73161836 5.90439603 -1.40375436 10.09274627 -4.12109375 15.28515625 C-6.45828452 19.81148617 -8.49545637 24.4708262 -10.5625 29.125 C-13.25358442 35.17644249 -16.02802997 41.13693312 -19.08203125 47.015625 C-20.00740495 49.01600731 -20.59127609 50.92760437 -21.125 53.0625 C-21.41375 54.031875 -21.7025 55.00125 -22 56 C-23.485 56.495 -23.485 56.495 -25 57 C-23.57133882 49.58954608 -21.85929278 43.00460108 -18.265625 36.34765625 C-15.4383669 31.103267 -13.14946001 25.55277169 -11 20 C-10.34 20 -9.68 20 -9 20 C-8.74476563 19.16210938 -8.48953125 18.32421875 -8.2265625 17.4609375 C-6.88231082 13.66792162 -5.20985807 10.19775209 -3.375 6.625 C-3.05015625 5.98433594 -2.7253125 5.34367188 -2.390625 4.68359375 C-1.59742593 3.12052499 -0.79922969 1.55999378 0 0 Z " fill="#B9AEA1" transform="translate(287,172)"/>
<path d="M0 0 C0.33 0.66 0.66 1.32 1 2 C-0.39433321 6.10151263 -2.40694341 9.42176982 -5.5 12.4375 C-8.37913532 15.3886137 -9.58817483 18.13051256 -11.10546875 21.9140625 C-12 24 -12 24 -14 27 C-14.66 27 -15.32 27 -16 27 C-16.39445312 28.07894531 -16.39445312 28.07894531 -16.796875 29.1796875 C-19.19613355 34.80392345 -22.77492585 41.32733866 -28.4375 44.125 C-29.283125 44.41375 -30.12875 44.7025 -31 45 C-29.34697456 41.41844487 -27.18447628 38.27671443 -25 35 C-24.30570621 33.6808418 -23.62469505 32.35350594 -23 31 C-21.68 31 -20.36 31 -19 31 C-18.92523438 30.1440625 -18.85046875 29.288125 -18.7734375 28.40625 C-17.86499298 24.40542363 -16.0404346 21.71803154 -13.625 18.5 C-11.27071021 15.30272257 -9.10195409 12.20702677 -7.33984375 8.62890625 C-6.89769531 7.76136719 -6.45554687 6.89382813 -6 6 C-4.67405895 5.63837971 -3.34061543 5.30271961 -2 5 C-0.70339566 2.50965614 -0.70339566 2.50965614 0 0 Z " fill="#BEB6AB" transform="translate(282,395)"/>
<path d="M0 0 C0.66 0.33 1.32 0.66 2 1 C-0.0800264 4.064758 -2.16460632 7.12639214 -4.25 10.1875 C-4.83652344 11.05181641 -5.42304688 11.91613281 -6.02734375 12.80664062 C-8.88807906 17.00131431 -11.81260957 21.04610285 -15 25 C-17.54031912 28.55653878 -20.01657914 32.1585832 -22.49023438 35.76171875 C-25.38125773 39.91274338 -28.28996548 43.55643205 -32 47 C-31.34820498 43.48030692 -29.84052893 41.04395169 -28 38 C-27.54625 36.80375 -27.0925 35.6075 -26.625 34.375 C-25 31 -25 31 -22.69140625 29.73828125 C-19.0616661 27.39396432 -17.47311006 24.48222442 -15.3125 20.8125 C-13.92822889 18.49012781 -12.51042777 16.24635328 -11 14 C-10.34 14 -9.68 14 -9 14 C-8.731875 13.236875 -8.46375 12.47375 -8.1875 11.6875 C-7.01474509 9.03337046 -6.04318638 7.96145892 -4 6 C-2.97695052 4.34738161 -1.97383946 2.68208635 -1 1 C-0.67 0.67 -0.34 0.34 0 0 Z " fill="#D7D3C8" transform="translate(277,408)"/>
<path d="M0 0 C0.99 0 1.98 0 3 0 C5.78443571 3.67545514 6.87143971 7.57257117 8 12 C6.2925002 10.71937515 4.62626404 9.38232443 3 8 C3 7.34 3 6.68 3 6 C-1.51034527 9.90083915 -3.16860361 13.39444212 -5 19 C-5.33 19.66 -5.66 20.32 -6 21 C-6.08400529 22.59447464 -6.10727467 24.19240545 -6.09765625 25.7890625 C-6.09443359 26.73007813 -6.09121094 27.67109375 -6.08789062 28.640625 C-6.07951172 29.62546875 -6.07113281 30.6103125 -6.0625 31.625 C-6.05798828 32.61757812 -6.05347656 33.61015625 -6.04882812 34.6328125 C-6.03702145 37.0886016 -6.020554 39.54427104 -6 42 C-9.20840246 38.79159754 -9.07186115 35.17593913 -9.1875 30.8125 C-9.06717932 21.72828896 -7.07984968 10.61977453 -2 3 C-1.34 3 -0.68 3 0 3 C0 2.01 0 1.02 0 0 Z " fill="#CEC2B2" transform="translate(232,205)"/>
<path d="M0 0 C0.33 0.99 0.66 1.98 1 3 C-0.00390625 4.54296875 -0.00390625 4.54296875 -1.5625 6.1875 C-3.89618527 8.74266929 -6.02926539 11.32400752 -8.0625 14.125 C-11.06311219 18.18326923 -14.46519611 21.59675073 -18.1875 25 C-20.14783424 26.90251387 -20.14783424 26.90251387 -20.875 29.5 C-22.43291899 32.96204219 -24.7905959 34.11621933 -28 36 C-28 34.68 -28 33.36 -28 32 C-27.34 32 -26.68 32 -26 32 C-24.71723792 29.61772756 -23.85988235 27.49957984 -23.125 24.875 C-22 22 -22 22 -20.18359375 21.140625 C-16.40699123 19.16787377 -14.39089058 15.4893834 -11.90234375 12.1171875 C-11.27457031 11.41851562 -10.64679688 10.71984375 -10 10 C-9.01 10 -8.02 10 -7 10 C-6.773125 9.46375 -6.54625 8.9275 -6.3125 8.375 C-4.56617944 5.21499137 -2.3597151 2.7323017 0 0 Z " fill="#D3C8BA" transform="translate(292,118)"/>
<path d="M0 0 C1.32 0 2.64 0 4 0 C7.1706898 10.70107809 6.07639667 19.34248297 3 30 C2.01 29.67 1.02 29.34 0 29 C0 28.34 0 27.68 0 27 C0.66 27 1.32 27 2 27 C2.33 23.37 2.66 19.74 3 16 C2.34 16.66 1.68 17.32 1 18 C-1.05942471 15.94057529 -0.45906816 11.84036265 -0.625 9 C-0.6765625 8.24976563 -0.728125 7.49953125 -0.78125 6.7265625 C-0.89826517 4.81990351 -0.9539329 2.90969078 -1 1 C-0.67 0.67 -0.34 0.34 0 0 Z " fill="#BFB8AF" transform="translate(189,362)"/>
<path d="M0 0 C1.32 0.33 2.64 0.66 4 1 C4.93435114 13.87328239 1.43074332 23.55679317 -6 34 C-6.66 34 -7.32 34 -8 34 C-6.92231615 29.59129334 -5.45810328 25.82040602 -3.4375 21.75 C-0.08977832 14.60162959 0.04175735 7.76686775 0 0 Z " fill="#E1D6CC" transform="translate(359,258)"/>
<path d="M0 0 C0.66 0.33 1.32 0.66 2 1 C1.3709375 1.81082031 0.741875 2.62164063 0.09375 3.45703125 C-0.77112617 4.57529441 -1.63568649 5.69380189 -2.5 6.8125 C-2.95052734 7.39475342 -3.40105469 7.97700684 -3.86523438 8.5769043 C-7.51227161 13.31252299 -10.99093689 18.14476795 -14.40625 23.05078125 C-14.9321875 23.69402344 -15.458125 24.33726562 -16 25 C-16.66 25 -17.32 25 -18 25 C-18.23847656 25.55558594 -18.47695312 26.11117187 -18.72265625 26.68359375 C-20.29259847 29.53061436 -22.23920449 31.66928174 -24.4375 34.0625 C-25.21996094 34.91972656 -26.00242188 35.77695312 -26.80859375 36.66015625 C-27.89333984 37.81837891 -27.89333984 37.81837891 -29 39 C-29.54785156 39.59683594 -30.09570312 40.19367187 -30.66015625 40.80859375 C-32 42 -32 42 -34 42 C-32.56973592 37.70920776 -29.51170645 35.40372742 -26.25 32.375 C-24.74340914 30.90383382 -24.74340914 30.90383382 -24 28 C-23.0246803 26.97591432 -22.01801357 25.98165594 -21 25 C-19.77288792 23.51454853 -18.54610786 22.02881319 -17.32421875 20.5390625 C-16.10557258 19.12270088 -14.77491683 17.8047969 -13.4375 16.5 C-10.92951348 14.08082937 -10.92951348 14.08082937 -9.125 11.1875 C-6.42338682 7.13508023 -3.26013652 3.60812862 0 0 Z " fill="#CEC3BA" transform="translate(200,516)"/>
<path d="M0 0 C0.33 0 0.66 0 1 0 C1.30557057 5.62476202 1.35485784 9.81232949 -1.265625 14.9296875 C-2.9507136 19.68020322 -2.78204489 25.00206388 -3 30 C-3.66 30 -4.32 30 -5 30 C-5.18175781 30.97839844 -5.18175781 30.97839844 -5.3671875 31.9765625 C-6.28943989 36.78646342 -7.30167277 41.39025465 -9 46 C-10.11739784 42.61267128 -9.87194652 40.21390948 -9.1796875 36.73828125 C-8.97625732 35.70888428 -8.77282715 34.6794873 -8.56323242 33.61889648 C-8.33611572 32.52778564 -8.10899902 31.4366748 -7.875 30.3125 C-7.64852783 29.20011963 -7.42205566 28.08773926 -7.1887207 26.94165039 C-5.27693955 17.79923746 -2.87159764 8.88362333 0 0 Z " fill="#9B9289" transform="translate(170,418)"/>
<path d="M0 0 C1.03930664 0.01353516 1.03930664 0.01353516 2.09960938 0.02734375 C3.79572395 0.05073843 5.49165871 0.08660359 7.1875 0.125 C7.1875 1.115 7.1875 2.105 7.1875 3.125 C6.01832031 3.37894531 4.84914062 3.63289063 3.64453125 3.89453125 C2.09624963 4.24172167 0.54807825 4.58940391 -1 4.9375 C-2.15338867 5.1859668 -2.15338867 5.1859668 -3.33007812 5.43945312 C-7.63999308 6.41982005 -11.19325914 7.45232983 -14.8125 10.125 C-16.14043606 12.19200655 -16.14043606 12.19200655 -16.8125 14.125 C-17.85377245 10.8118604 -17.99824123 9.52301692 -16.5 6.3125 C-15.943125 5.590625 -15.38625 4.86875 -14.8125 4.125 C-14.1525 4.125 -13.4925 4.125 -12.8125 4.125 C-12.8125 3.465 -12.8125 2.805 -12.8125 2.125 C-8.53365394 0.0146565 -4.67385858 -0.11628739 0 0 Z " fill="#CABFB0" transform="translate(190.8125,41.875)"/>
<path d="M0 0 C13.22347635 -0.44324502 25.75665459 0.75648824 38 6 C38 6.66 38 7.32 38 8 C32.8259364 8.20290445 28.77407572 8.24662387 24 6 C23.01 6 22.02 6 21 6 C18.32643843 5.71372955 15.66634425 5.34968449 13 5 C13 4.34 13 3.68 13 3 C8.71 2.34 4.42 1.68 0 1 C0 0.67 0 0.34 0 0 Z " fill="#C4B9AF" transform="translate(283,40)"/>
<path d="M0 0 C1 2 1 2 0.29296875 4.29296875 C-0.07183594 5.24816406 -0.43664062 6.20335937 -0.8125 7.1875 C-3.02485579 13.47364198 -3.89166001 19.45858347 -4.60546875 26.04296875 C-5 29 -5 29 -6 30 C-7.99958364 30.04080783 -10.00045254 30.04254356 -12 30 C-11.5153125 29.60039063 -11.030625 29.20078125 -10.53125 28.7890625 C-8.60350745 26.53675105 -8.6116332 25.30537142 -8.5 22.375 C-7.84496287 13.70835488 -4.90072658 7.1089591 0 0 Z " fill="#71675D" transform="translate(164,532)"/>
<path d="M0 0 C1.09249156 3.77676958 0.71775223 6.09969827 -0.25 9.9375 C-0.53230469 11.08863281 -0.81460938 12.23976563 -1.10546875 13.42578125 C-1.40066406 14.60527344 -1.69585937 15.78476562 -2 17 C-5.20404092 30.42571294 -7.3433335 43.2272841 -8 57 C-14.44880613 45.62430599 -7.60225206 26.72567706 -4.3984375 14.97265625 C-2.98999119 9.96438443 -1.5205603 4.97534033 0 0 Z " fill="#D8D5C6" transform="translate(149,495)"/>
<path d="M0 0 C4.90379977 1.96151991 6.91597208 5.25303596 9.05078125 9.859375 C12.02473266 19.69911546 10.38730245 30.48329312 7 40 C6.34 40 5.68 40 5 40 C5.45939931 36.71857636 5.91805953 33.44694802 6.515625 30.1875 C7.91068508 21.00710462 8.08846947 12.95073354 3 5 C1.68 5.33 0.36 5.66 -1 6 C-0.67 4.02 -0.34 2.04 0 0 Z " fill="#C8C0B5" transform="translate(322,48)"/>
<path d="M0 0 C0.33 0 0.66 0 1 0 C0.31134608 5.67756896 -0.92377086 11.09650806 -2.375 16.625 C-2.58382812 17.45773438 -2.79265625 18.29046875 -3.0078125 19.1484375 C-4.1670725 23.58755507 -5.46136501 27.13095737 -8 31 C-10.08872403 35.63249151 -11.09841844 40.41748562 -12.21875 45.35546875 C-13 48 -13 48 -15 50 C-15.67767407 41.86791113 -13.37272739 36.3177964 -10 29 C-9.32316426 27.33743704 -8.65296623 25.67208174 -8 24 C-7.34 24 -6.68 24 -6 24 C-6.061875 22.989375 -6.12375 21.97875 -6.1875 20.9375 C-6.01572897 17.3303084 -5.40617938 15.18645984 -3.8671875 11.9765625 C-2.17866952 8.12795847 -1.14532999 4.03708516 0 0 Z " fill="#BBB0A2" transform="translate(123,190)"/>
<path d="M0 0 C0.66 0 1.32 0 2 0 C1.57432812 9.57761737 -4.38165765 17.56395866 -10 25 C-11.24546405 22.50907189 -10.7767578 21.58919267 -10 19 C-9.34 19 -8.68 19 -8 19 C-8 18.01 -8 17.02 -8 16 C-9.32 15.67 -10.64 15.34 -12 15 C-11.34 13.68 -10.68 12.36 -10 11 C-9.67 11.66 -9.34 12.32 -9 13 C-9.33 13.66 -9.66 14.32 -10 15 C-6.76612108 12.04732794 -4.77754751 9.12077252 -2.75 5.25 C-2.22921875 4.26515625 -1.7084375 3.2803125 -1.171875 2.265625 C-0.78515625 1.51796875 -0.3984375 0.7703125 0 0 Z " fill="#B5AB9F" transform="translate(361,277)"/>
<path d="M0 0 C0.66 0.33 1.32 0.66 2 1 C-4.98408878 10.67827138 -11.9687379 20.35591241 -19 30 C-19.33 29.01 -19.66 28.02 -20 27 C-19.34 27 -18.68 27 -18 27 C-17.896875 25.783125 -17.79375 24.56625 -17.6875 23.3125 C-17.20361787 19.56738491 -16.45265704 16.97822641 -14 14 C-11.375 12.8125 -11.375 12.8125 -9 12 C-8.67 11.34 -8.34 10.68 -8 10 C-7.34 10 -6.68 10 -6 10 C-5.9071875 8.9171875 -5.9071875 8.9171875 -5.8125 7.8125 C-4.75543353 4.15342375 -2.79449929 2.50788398 0 0 Z " fill="#C8C0B5" transform="translate(233,470)"/>
<path d="M0 0 C1.5762474 4.72874219 -0.24770122 8.9032925 -1.40625 13.65234375 C-1.96050848 16.7773406 -1.96737395 18.09787814 -1 21 C-0.96111651 23.33300933 -0.9551365 25.66709801 -1 28 C-1.33 26.68 -1.66 25.36 -2 24 C-2.66 24 -3.32 24 -4 24 C-4 24.99 -4 25.98 -4 27 C-4.66 27 -5.32 27 -6 27 C-6.33 29.31 -6.66 31.62 -7 34 C-7.33 34 -7.66 34 -8 34 C-8 30.37 -8 26.74 -8 23 C-7.34 23 -6.68 23 -6 23 C-5.95101562 22.32453125 -5.90203125 21.6490625 -5.8515625 20.953125 C-5.73941406 19.61507813 -5.73941406 19.61507813 -5.625 18.25 C-5.55539063 17.36828125 -5.48578125 16.4865625 -5.4140625 15.578125 C-4.99618045 12.97621787 -4.24340246 11.29769428 -3 9 C-2.31744011 6.67126625 -1.64949225 4.33817209 -1 2 C-0.67 1.34 -0.34 0.68 0 0 Z " fill="#7E756A" transform="translate(179,394)"/>
<path d="M0 0 C0.33 0 0.66 0 1 0 C1 5.94 1 11.88 1 18 C-0.65 18.33 -2.3 18.66 -4 19 C-7.25601751 10.96498906 -7.25601751 10.96498906 -6.1875 6.9375 C-5.795625 6.298125 -5.40375 5.65875 -5 5 C-4.01 5 -3.02 5 -2 5 C-1.34 3.35 -0.68 1.7 0 0 Z " fill="#DED4C6" transform="translate(257,219)"/>
<path d="M0 0 C0.99 0.33 1.98 0.66 3 1 C1.87548273 3.9719385 0.77706209 6.33440687 -1 9 C-1 9.99 -1 10.98 -1 12 C-1.99477753 14.33556463 -2.99515117 16.66875071 -4 19 C-4.2165625 20.3303125 -4.2165625 20.3303125 -4.4375 21.6875 C-5.17322312 24.71213949 -6.69150268 25.9893733 -9 28 C-10.83384666 24.33230669 -8.44310693 20.27607574 -7.25390625 16.546875 C-5.2355227 10.83755331 -2.70546196 5.41092391 0 0 Z " fill="#CBC0B0" transform="translate(267,198)"/>
<path d="M0 0 C0.33 0 0.66 0 1 0 C1 4.29 1 8.58 1 13 C2.65 12.67 4.3 12.34 6 12 C6 9.36 6 6.72 6 4 C8 6 8 6 9 9 C8.68056072 11.55551426 8.35217188 12.67600187 6.4375 14.4375 C4.76722884 15.96012323 4.76722884 15.96012323 4.625 18.5 C5.05673677 21.37824511 5.75802612 22.22510401 8 24 C6.68 24.33 5.36 24.66 4 25 C1.62761285 22.78172461 0.14172248 20.98220384 -0.33007812 17.71240234 C-0.39318165 15.02795811 -0.34860984 12.37082556 -0.25 9.6875 C-0.23195312 8.75615234 -0.21390625 7.82480469 -0.1953125 6.86523438 C-0.14834888 4.57575803 -0.08269475 2.28841816 0 0 Z " fill="#6E665D" transform="translate(144,536)"/>
<path d="M0 0 C0.33 0 0.66 0 1 0 C1.0816082 2.37570543 1.14077222 4.74855841 1.1875 7.125 C1.21263672 7.79015625 1.23777344 8.4553125 1.26367188 9.140625 C1.33404179 13.92577928 0.30196543 16.86455959 -2 21 C-2.68454868 23.33083379 -2.68454868 23.33083379 -3.0625 25.5625 C-3.73409877 28.90930051 -4.71617941 31.83324254 -6 35 C-6.37593066 36.9924325 -6.71979545 38.9918674 -7 41 C-7.66 41 -8.32 41 -9 41 C-8.37931362 34.47896158 -6.87382191 28.47283045 -5.0625 22.1875 C-2.94835057 14.83684421 -1.23734501 7.55137647 0 0 Z " fill="#999088" transform="translate(180,376)"/>
<path d="M0 0 C0.53625 0.2475 1.0725 0.495 1.625 0.75 C0.965 0.75 0.305 0.75 -0.375 0.75 C-1.50380057 4.06114834 -2.58802675 7.33978257 -3.375 10.75 C-4.035 10.09 -4.695 9.43 -5.375 8.75 C-9.23768696 8.75 -12.5464559 12.94907404 -15.25 15.5625 C-15.62125 15.954375 -15.9925 16.34625 -16.375 16.75 C-15.87390042 12.36537866 -14.39204885 9.9499003 -11.375 6.75 C-10.715 6.75 -10.055 6.75 -9.375 6.75 C-9.045 5.76 -8.715 4.77 -8.375 3.75 C-3.25872093 -0.34302326 -3.25872093 -0.34302326 0 0 Z " fill="#B3A69B" transform="translate(176.375,45.25)"/>
<path d="M0 0 C1.49233459 2.98466918 0.33040374 4.68310821 -0.6875 7.8125 C-1.05746094 8.97394531 -1.42742187 10.13539062 -1.80859375 11.33203125 C-2.39833984 13.14767578 -2.39833984 13.14767578 -3 15 C-3.756677 17.33117661 -4.506986 19.66443269 -5.25 22 C-5.58515625 23.03125 -5.9203125 24.0625 -6.265625 25.125 C-7.12752206 27.94990184 -7.12752206 27.94990184 -6.921875 30.75 C-6.94765625 31.4925 -6.9734375 32.235 -7 33 C-7.99 33.66 -8.98 34.32 -10 35 C-11.12829103 30.21341981 -10.77474156 27.21229849 -9.19921875 22.578125 C-8.79896484 21.38832031 -8.39871094 20.19851562 -7.98632812 18.97265625 C-7.55771484 17.74417969 -7.12910156 16.51570313 -6.6875 15.25 C-6.06198242 13.38408203 -6.06198242 13.38408203 -5.42382812 11.48046875 C-2.28797868 2.28797868 -2.28797868 2.28797868 0 0 Z " fill="#BFAFA0" transform="translate(149,104)"/>
<path d="M0 0 C1.38654052 3.85150145 0.59924518 7.01582937 0 11 C-0.19136666 14.16725687 -0.22995299 17.32756135 -0.25 20.5 C-0.270625 21.31597656 -0.29125 22.13195312 -0.3125 22.97265625 C-0.34761198 28.4413476 0.51158546 32.12371293 3 37 C3.33 37.66 3.66 38.32 4 39 C0.10764953 37.5235912 -1.23976259 35.73864509 -3 32 C-3.29433541 29.09415925 -3.42653664 26.46020907 -3.375 23.5625 C-3.36919922 22.77568848 -3.36339844 21.98887695 -3.35742188 21.17822266 C-3.19787347 13.86706486 -1.90830478 7.06527125 0 0 Z " fill="#ABA49A" transform="translate(144,522)"/>
<path d="M0 0 C0.33 0.66 0.66 1.32 1 2 C-0.84343842 7.42258185 -3.93779143 11.04469165 -8 15 C-8.67966676 16.66140763 -9.34938905 18.32700041 -10 20 C-10.99 20.33 -11.98 20.66 -13 21 C-14.69882448 23.49759982 -14.69882448 23.49759982 -16 26 C-16.66 25.67 -17.32 25.34 -18 25 C-17.38511719 24.13117188 -16.77023437 23.26234375 -16.13671875 22.3671875 C-15.32010138 21.20327309 -14.50370699 20.03920222 -13.6875 18.875 C-13.28337891 18.30523437 -12.87925781 17.73546875 -12.46289062 17.1484375 C-10.5032225 14.34435953 -8.84950324 11.69300074 -7.3359375 8.60546875 C-6.89507812 7.74566406 -6.45421875 6.88585937 -6 6 C-4.67405895 5.63837971 -3.34061543 5.30271961 -2 5 C-0.70339566 2.50965614 -0.70339566 2.50965614 0 0 Z " fill="#B2A89C" transform="translate(282,395)"/>
<path d="M0 0 C0.99 0.99 1.98 1.98 3 3 C3 4.32 3 5.64 3 7 C3.66 7.33 4.32 7.66 5 8 C4.175 8.886875 3.35 9.77375 2.5 10.6875 C0.53900524 13.01307407 0.02740522 13.74787194 -0.3125 16.875 C-0.209375 17.57625 -0.10625 18.2775 0 19 C-1.9375 18.3125 -1.9375 18.3125 -4 17 C-4.75 14.375 -4.75 14.375 -5 12 C-3.68 11.67 -2.36 11.34 -1 11 C-0.67 7.37 -0.34 3.74 0 0 Z " fill="#918678" transform="translate(81,327)"/>
<path d="M0 0 C0.82638376 2.89234315 1 4.88742431 1 8 C1.99 7.01 2.98 6.02 4 5 C4.33 5.99 4.66 6.98 5 8 C3.33333333 9.66666667 1.66666667 11.33333333 0 13 C-0.804375 13.8971875 -0.804375 13.8971875 -1.625 14.8125 C-3 16 -3 16 -6 16 C-6.33 16.66 -6.66 17.32 -7 18 C-6.67 16.02 -6.34 14.04 -6 12 C-5.34 12 -4.68 12 -4 12 C-3.79503906 11.38511719 -3.59007812 10.77023438 -3.37890625 10.13671875 C-2.25260417 6.7578125 -1.12630208 3.37890625 0 0 Z " fill="#D5C7B5" transform="translate(270,182)"/>
<path d="M0 0 C0.33 0 0.66 0 1 0 C-0.14150885 11.41508847 -2.72004017 22.35441462 -7 33 C-7.66 32.67 -8.32 32.34 -9 32 C-8.68546875 30.94683594 -8.3709375 29.89367187 -8.046875 28.80859375 C-5.20448662 19.24438618 -2.51577296 9.6555085 0 0 Z " fill="#C2BCB4" transform="translate(162,446)"/>
<path d="M0 0 C0.33 0.66 0.66 1.32 1 2 C-0.88366391 7.23239975 -3.34753298 12.75775785 -7 17 C-9.08203125 17.59765625 -9.08203125 17.59765625 -11 18 C-12.28436734 19.9837767 -12.28436734 19.9837767 -13 22 C-13 17.75599766 -10.63124624 15.39465769 -8.1875 12.125 C-5.27057816 8.17196755 -2.44467045 4.27208192 0 0 Z " fill="#B6ACA1" transform="translate(250,440)"/>
<path d="M0 0 C0.33 0 0.66 0 1 0 C1 2.64 1 5.28 1 8 C0.34 8 -0.32 8 -1 8 C-0.731875 8.804375 -0.46375 9.60875 -0.1875 10.4375 C0.07712553 15.46538511 -1.96712784 19.04226847 -5 23 C-5.99 23.33 -6.98 23.66 -8 24 C-6.90839143 19.53432857 -5.40472105 15.59936649 -3.4375 11.4375 C-1.64424207 7.60836688 -0.34582906 4.26522507 0 0 Z " fill="#CCC2B6" transform="translate(359,268)"/>
<path d="M0 0 C8.03215634 2.98337235 11.76171187 6.59640809 16 14 C17.09506492 17.28519475 17.09960608 19.73663415 17.0625 23.1875 C17.05347656 24.27417969 17.04445313 25.36085938 17.03515625 26.48046875 C17.02355469 27.31191406 17.01195312 28.14335937 17 29 C16.67 29 16.34 29 16 29 C15.90203125 28.14277344 15.8040625 27.28554688 15.703125 26.40234375 C14.81603989 19.61920161 13.85408187 14.66068274 10 9 C9.566875 7.8553125 9.566875 7.8553125 9.125 6.6875 C7.39337814 4.09006721 4.8988177 3.90588053 2 3 C1.34 2.01 0.68 1.02 0 0 Z " fill="#B5ACA2" transform="translate(351,243)"/>
<path d="M0 0 C0 0.33 0 0.66 0 1 C-3.89581756 1.02911003 -7.791607 1.04683587 -11.6875 1.0625 C-12.79029297 1.07087891 -13.89308594 1.07925781 -15.02929688 1.08789062 C-16.6293457 1.09272461 -16.6293457 1.09272461 -18.26171875 1.09765625 C-19.24100342 1.10289307 -20.22028809 1.10812988 -21.22924805 1.11352539 C-23.92469572 1.00308543 -26.37545639 0.60534166 -29 0 C-29 -0.33 -29 -0.66 -29 -1 C-8.92744626 -3.17420311 -8.92744626 -3.17420311 0 0 Z " fill="#81766C" transform="translate(176,356)"/>
<path d="M0 0 C0.66 0.66 1.32 1.32 2 2 C0.95730486 3.82396528 -0.10994205 5.63391153 -1.1875 7.4375 C-1.77917969 8.44683594 -2.37085938 9.45617187 -2.98046875 10.49609375 C-5 13 -5 13 -7.73828125 13.84765625 C-8.85783203 13.92306641 -8.85783203 13.92306641 -10 14 C-8.38798165 8.2683792 -4.12110332 4.12110332 0 0 Z " fill="#C8BDB4" transform="translate(320,347)"/>
<path d="M0 0 C0.66 0.33 1.32 0.66 2 1 C1.67 2.65 1.34 4.3 1 6 C0.34 6 -0.32 6 -1 6 C-1 6.99 -1 7.98 -1 9 C-1.61875 9.061875 -2.2375 9.12375 -2.875 9.1875 C-3.57625 9.455625 -4.2775 9.72375 -5 10 C-5.70105843 11.65249487 -6.35800351 13.32367583 -7 15 C-8.89436019 17.7498777 -10.93187515 20.37907448 -13 23 C-14 20 -14 20 -13.375 18.125 C-11.5962482 15.37601994 -9.31032977 13.31032977 -7 11 C-6.67 10.01 -6.34 9.02 -6 8 C-5.34 8 -4.68 8 -4 8 C-4 7.34 -4 6.68 -4 6 C-3.34 6 -2.68 6 -2 6 C-1.34 4.02 -0.68 2.04 0 0 Z " fill="#AEA498" transform="translate(214,491)"/>
<path d="M0 0 C2.89237152 3.21966619 3.3667617 5.27150734 3.25 9.5625 C3.23453125 10.51253906 3.2190625 11.46257812 3.203125 12.44140625 C3 15 3 15 2 18 C1.34 18 0.68 18 0 18 C-1.52491129 14.95017742 -1.14361434 11.77877461 -1.125 8.4375 C-1.12886719 7.73947266 -1.13273437 7.04144531 -1.13671875 6.32226562 C-1.12663994 1.12663994 -1.12663994 1.12663994 0 0 Z M0 7 C1 9 1 9 1 9 Z " fill="#D2CCBF" transform="translate(77,320)"/>
<path d="M0 0 C0 7.08303628 -6.03473697 13.31070883 -10.75 18.125 C-14.69204152 22 -14.69204152 22 -17 22 C-15.56973592 17.70920776 -12.51170645 15.40372742 -9.25 12.375 C-7.74340914 10.90383382 -7.74340914 10.90383382 -7 8 C-6.02351983 6.97702078 -5.01868662 5.98095748 -4 5 C-2.65263027 3.34466005 -1.31665664 1.67987227 0 0 Z " fill="#C6C1BC" transform="translate(183,536)"/>
<path d="M0 0 C1.31518844 2.63037687 0.76735054 3.78281884 0.125 6.625 C-0.58620393 9.90127944 -1.16582342 13.10192265 -1.5 16.4375 C-2 20 -2 20 -4 23 C-5.32 22.67 -6.64 22.34 -8 22 C-7.01 21.34 -6.02 20.68 -5 20 C-4.52661559 17.87585041 -4.52661559 17.87585041 -4.5 15.4375 C-4.16523556 10.63920973 -3.59970896 3.59970896 0 0 Z " fill="#645B51" transform="translate(160,539)"/>
<path d="M0 0 C0.33 0 0.66 0 1 0 C1.33 3.63 1.66 7.26 2 11 C2.99 10.34 3.98 9.68 5 9 C4.85831863 10.43791516 4.71148957 11.8753237 4.5625 13.3125 C4.48128906 14.11300781 4.40007812 14.91351563 4.31640625 15.73828125 C4 18 4 18 3 21 C2.34 21 1.68 21 1 21 C0.855625 20.2575 0.71125 19.515 0.5625 18.75 C0.07848768 16.1410974 0.07848768 16.1410974 -0.5625 14.21875 C-1.13919639 11.29407546 -0.85221883 8.71157027 -0.5625 5.75 C-0.46066406 4.67234375 -0.35882813 3.5946875 -0.25390625 2.484375 C-0.17011719 1.66453125 -0.08632812 0.8446875 0 0 Z " fill="#A59C92" transform="translate(188,368)"/>
<path d="M0 0 C0.33 0 0.66 0 1 0 C1.66493843 6.38340895 0.82717741 10.25258686 -2.80859375 15.56640625 C-3.20175781 16.03949219 -3.59492188 16.51257813 -4 17 C-4.33 17 -4.66 17 -5 17 C-4.69343615 10.37822074 -3.25711277 5.77874846 0 0 Z " fill="#C8B9A7" transform="translate(255,152)"/>
<path d="M0 0 C0.66 0.99 1.32 1.98 2 3 C0.87672229 4.45966034 -0.24868294 5.91768364 -1.375 7.375 C-2.00148438 8.18710937 -2.62796875 8.99921875 -3.2734375 9.8359375 C-5 12 -5 12 -7 14 C-8 13 -8 13 -8.3125 10.70703125 C-7.90065777 7.13944794 -6.60752551 6.09131258 -4 3.6875 C-3.2575 2.99011719 -2.515 2.29273438 -1.75 1.57421875 C-1.1725 1.05472656 -0.595 0.53523438 0 0 Z " fill="#C6BEB5" transform="translate(330,333)"/>
<path d="M0 0 C0.33 0 0.66 0 1 0 C1.322092 9.50767881 1.23806859 17.90256921 -2 27 C-2.66 27 -3.32 27 -4 27 C-3.5126723 23.18259965 -2.90331437 19.49133938 -2 15.75 C-0.79588348 10.54713834 -0.37771906 5.31788675 0 0 Z " fill="#B7ADA1" transform="translate(331,61)"/>
<path d="M0 0 C0.99 0.33 1.98 0.66 3 1 C2.11223998 4.69900008 1.05418136 8.34550461 0 12 C-1.32 12.33 -2.64 12.66 -4 13 C-4.33 12.34 -4.66 11.68 -5 11 C-4.00390625 8.3984375 -4.00390625 8.3984375 -2.5625 5.375 C-2.08941406 4.37210937 -1.61632812 3.36921875 -1.12890625 2.3359375 C-0.75636719 1.56507812 -0.38382813 0.79421875 0 0 Z " fill="#AFA180" transform="translate(155,68)"/>
<path d="M0 0 C0.66 0.33 1.32 0.66 2 1 C1.67 2.32 1.34 3.64 1 5 C0.34 5 -0.32 5 -1 5 C-1.33 6.65 -1.66 8.3 -2 10 C-2.66 10 -3.32 10 -4 10 C-4.66 11.32 -5.32 12.64 -6 14 C-6.99 13.67 -7.98 13.34 -9 13 C-7.68 10.69 -6.36 8.38 -5 6 C-4.34 6 -3.68 6 -3 6 C-2.690625 5.38125 -2.38125 4.7625 -2.0625 4.125 C-1.375 2.75 -0.6875 1.375 0 0 Z " fill="#B5ABA0" transform="translate(229,470)"/>
<path d="M0 0 C0.33 0 0.66 0 1 0 C1.46530864 7.78961124 0.15721701 14.52678392 -2 22 C-2.99 21.67 -3.98 21.34 -5 21 C-5 20.34 -5 19.68 -5 19 C-4.34 19 -3.68 19 -3 19 C-2.83165067 17.22932584 -2.66538091 15.45845388 -2.5 13.6875 C-2.4071875 12.70136719 -2.314375 11.71523438 -2.21875 10.69921875 C-1.95961143 7.95297861 -1.95961143 7.95297861 -2 5 C-1.34 5 -0.68 5 0 5 C0 3.35 0 1.7 0 0 Z " fill="#ACA49A" transform="translate(194,370)"/>
<path d="M0 0 C2.50874465 3.76311697 2.26763214 5.88762075 2.25 10.375 C2.25515625 11.68210937 2.2603125 12.98921875 2.265625 14.3359375 C2.02038462 17.71881218 1.46995257 19.97843084 0 23 C-0.33 23 -0.66 23 -1 23 C-1.07219884 19.46225699 -1.01924894 16.12993035 -0.5 12.625 C0.08521535 8.38218875 0.08721491 4.27353066 0 0 Z " fill="#696056" transform="translate(186,362)"/>
<path d="M0 0 C0.66 0 1.32 0 2 0 C0.79618552 2.49361571 -0.45428722 4.68143083 -2 7 C-2.268125 7.94875 -2.53625 8.8975 -2.8125 9.875 C-4.20770294 13.54658667 -6.10020355 15.40544528 -9 18 C-8.34820498 14.48030692 -6.84052893 12.04395169 -5 9 C-4.46298072 7.7778182 -3.94256035 6.5482314 -3.4375 5.3125 C-2 2 -2 2 0 0 Z " fill="#CAC3BA" transform="translate(254,437)"/>
<path d="M0 0 C0.66 1.32 1.32 2.64 2 4 C1.04663979 5.31611677 0.08714226 6.62778961 -0.875 7.9375 C-1.40867187 8.66839844 -1.94234375 9.39929688 -2.4921875 10.15234375 C-4 12 -4 12 -6 13 C-5.77082032 11.39272673 -5.51579198 9.78912584 -5.25 8.1875 C-5.11078125 7.29417969 -4.9715625 6.40085938 -4.828125 5.48046875 C-3.831159 2.49427342 -2.6417565 1.61619656 0 0 Z " fill="#E0D1C1" transform="translate(275,179)"/>
<path d="M0 0 C0.33 1.32 0.66 2.64 1 4 C0.34 4 -0.32 4 -1 4 C-1.12375 4.928125 -1.2475 5.85625 -1.375 6.8125 C-2 10 -2 10 -4 13 C-4.99 13 -5.98 13 -7 13 C-6.44271087 9.65626525 -5.64826111 6.96687001 -4 4 C-3.34 4 -2.68 4 -2 4 C-1.34 2.68 -0.68 1.36 0 0 Z " fill="#E4D6C7" transform="translate(291,146)"/>
<path d="M0 0 C1.73662334 3.22515763 2.8905928 6.51329166 4 10 C2.2925002 8.71937515 0.62626404 7.38232443 -1 6 C-1 5.34 -1 4.68 -1 4 C-3.64752004 6.57784846 -5.94432065 8.91648098 -8 12 C-7.55396127 6.94489444 -5.35299176 4.59833262 -2 1 C-1.34 0.67 -0.68 0.34 0 0 Z " fill="#D4C7B7" transform="translate(236,207)"/>
<path d="M0 0 C0.75 1.5625 0.75 1.5625 1 4 C0.08523978 5.76643352 -0.83473954 7.53532635 -1.89453125 9.21875 C-3.05828698 11.09391824 -4.03797451 13.01500623 -5 15 C-5.76681614 7.33183857 -5.76681614 7.33183857 -3.88671875 4.06640625 C-2.5 2.4375 -2.5 2.4375 0 0 Z " fill="#D3C6B7" transform="translate(261,146)"/>
<path d="M0 0 C0.66 0 1.32 0 2 0 C0.21076233 8.92914798 0.21076233 8.92914798 -2.7578125 11.5546875 C-4.6875 12.625 -4.6875 12.625 -8 14 C-6.34697456 10.41844487 -4.18447628 7.27671443 -2 4 C-1.30570621 2.6808418 -0.62469505 1.35350594 0 0 Z " fill="#B2A99D" transform="translate(259,426)"/>
<path d="M0 0 C0.33 0 0.66 0 1 0 C1.42589023 5.53657294 -0.094753 9.89665983 -2 15 C-2.33 15 -2.66 15 -3 15 C-3.144375 14.21625 -3.28875 13.4325 -3.4375 12.625 C-3.87798925 10.03578982 -3.87798925 10.03578982 -5 8 C-3.52830189 4.26415094 -3.52830189 4.26415094 -1 3 C-0.67 2.01 -0.34 1.02 0 0 Z " fill="#C6BBAC" transform="translate(128,170)"/>
<path d="M0 0 C0.33 0 0.66 0 1 0 C0.22095672 14.78132118 0.22095672 14.78132118 -2 21 C-2.33 21 -2.66 21 -3 21 C-3 17.37 -3 13.74 -3 10 C-2.34 10 -1.68 10 -1 10 C-0.67 6.7 -0.34 3.4 0 0 Z " fill="#8A8379" transform="translate(174,407)"/>
<path d="M0 0 C0.66 0 1.32 0 2 0 C1.51349578 4.78395815 0.87055812 8.55742447 -1 13 C-1.37593066 14.9924325 -1.71979545 16.9918674 -2 19 C-2.66 19 -3.32 19 -4 19 C-3.37968409 12.42465139 -1.85102717 6.33307408 0 0 Z " fill="#A9A297" transform="translate(175,398)"/>
<path d="M0 0 C3.41264084 0.23136548 5.64215935 0.7734712 8.6875 2.25 C8.6875 2.91 8.6875 3.57 8.6875 4.25 C-0.72252278 4.6190205 -0.72252278 4.6190205 -5.3125 2.25 C-3.3125 0.25 -3.3125 0.25 0 0 Z " fill="#CDC6B8" transform="translate(312.3125,43.75)"/>
<path d="M0 0 C0.66 0.33 1.32 0.66 2 1 C-1.63 5.95 -5.26 10.9 -9 16 C-9.33 15.01 -9.66 14.02 -10 13 C-9.34 12.01 -8.68 11.02 -8 10 C-7.34 10 -6.68 10 -6 10 C-5.938125 9.278125 -5.87625 8.55625 -5.8125 7.8125 C-4.75543353 4.15342375 -2.79449929 2.50788398 0 0 Z " fill="#D9D4C8" transform="translate(233,470)"/>
<path d="M0 0 C-2.75647668 7.28497409 -2.75647668 7.28497409 -6.5 9.4375 C-9.15726223 11.09828889 -9.90985696 12.12598653 -11 15 C-11.33 14.34 -11.66 13.68 -12 13 C-10.09873793 8.9598181 -4.875006 0 0 0 Z " fill="#C8C2B9" transform="translate(284,400)"/>
<path d="M0 0 C0.33 0 0.66 0 1 0 C1 1.65 1 3.3 1 5 C1.66 5 2.32 5 3 5 C2.67 6.98 2.34 8.96 2 11 C1.34 10.34 0.68 9.68 0 9 C-0.99 9.66 -1.98 10.32 -3 11 C-3 9.02 -3 7.04 -3 5 C-2.34 5 -1.68 5 -1 5 C-0.67 3.35 -0.34 1.7 0 0 Z " fill="#93887F" transform="translate(153,493)"/>
<path d="M0 0 C0.66 0.66 1.32 1.32 2 2 C-0.31 5.3 -2.62 8.6 -5 12 C-5.66 11.34 -6.32 10.68 -7 10 C-6.21172254 8.70626218 -5.41924884 7.41508049 -4.625 6.125 C-4.18414062 5.40570313 -3.74328125 4.68640625 -3.2890625 3.9453125 C-2 2 -2 2 0 0 Z " fill="#D2C8BE" transform="translate(311,360)"/>
<path d="M0 0 C0 4.03381023 -1.59573562 5.49433637 -4 8.6875 C-4.7425 9.68136719 -5.485 10.67523438 -6.25 11.69921875 C-7.11625 12.83810547 -7.11625 12.83810547 -8 14 C-8.33 13.34 -8.66 12.68 -9 12 C-8.22265625 10.34375 -8.22265625 10.34375 -7.0625 8.5 C-5.38188448 5.94651908 -5.38188448 5.94651908 -5 3 C-2.5 1.375 -2.5 1.375 0 0 Z " fill="#D5D1C4" transform="translate(244,455)"/>
<path d="M0 0 C1 3 1 3 0.22265625 5.04296875 C-0.16019531 5.75066406 -0.54304688 6.45835937 -0.9375 7.1875 C-1.31777344 7.90292969 -1.69804687 8.61835938 -2.08984375 9.35546875 C-2.54037109 10.16951172 -2.54037109 10.16951172 -3 11 C-3.66 11 -4.32 11 -5 11 C-5.33 9.35 -5.66 7.7 -6 6 C-5.34 6 -4.68 6 -4 6 C-4 5.01 -4 4.02 -4 3 C-3.34 3 -2.68 3 -2 3 C-2 2.34 -2 1.68 -2 1 C-1.34 0.67 -0.68 0.34 0 0 Z " fill="#DCD1C0" transform="translate(266,197)"/>
<path d="M0 0 C0.721875 0.61875 1.44375 1.2375 2.1875 1.875 C4.78381938 3.83666353 6.94671666 4.95316 10 6 C10 6.66 10 7.32 10 8 C5.65944077 7.50675463 3.43056463 6.6024973 0 4 C-0.99 4.33 -1.98 4.66 -3 5 C-2.67 4.01 -2.34 3.02 -2 2 C-1.34 2 -0.68 2 0 2 C0 1.34 0 0.68 0 0 Z " fill="#B6ADA0" transform="translate(263,232)"/>
<path d="M0 0 C0.33 0 0.66 0 1 0 C1.33 1.98 1.66 3.96 2 6 C2.99 5.01 3.98 4.02 5 3 C5 5.31 5 7.62 5 10 C3.35 10.33 1.7 10.66 0 11 C0 7.37 0 3.74 0 0 Z " fill="#ADA59C" transform="translate(145,538)"/>
<path d="M0 0 C1.51553092 3.97450493 0.49888623 7.20481149 -0.4375 11.25 C-0.72496094 12.51328125 -1.01242188 13.7765625 -1.30859375 15.078125 C-1.53675781 16.04234375 -1.76492187 17.0065625 -2 18 C-3.75640906 15.37489764 -4.03435264 14.23763202 -3.57421875 11.0546875 C-3.28160156 10.00539063 -2.98898438 8.95609375 -2.6875 7.875 C-2.40261719 6.82054687 -2.11773437 5.76609375 -1.82421875 4.6796875 C-1 2 -1 2 0 0 Z " fill="#C5C0B7" transform="translate(144,518)"/>
<path d="M0 0 C0.33 0.99 0.66 1.98 1 3 C0.0925 3.598125 -0.815 4.19625 -1.75 4.8125 C-4.8891764 6.82451386 -4.8891764 6.82451386 -7.0625 8.8125 C-9 10 -9 10 -11.75 9.6875 C-12.4925 9.460625 -13.235 9.23375 -14 9 C-12.71851975 6.43703951 -11.84388481 6.40681782 -9.1875 5.5 C-3.69274028 3.89856651 -3.69274028 3.89856651 0 0 Z " fill="#B2A89D" transform="translate(350,278)"/>
<path d="M0 0 C1.18771723 3.42943519 0.80226223 5.37784675 -0.4375 8.75 C-0.86869141 9.94882812 -0.86869141 9.94882812 -1.30859375 11.171875 C-1.53675781 11.77515625 -1.76492187 12.3784375 -2 13 C-2.66 13 -3.32 13 -4 13 C-3.55966813 7.80408388 -3.11696661 4.33664919 0 0 Z " fill="#A99C91" transform="translate(77,299)"/>
<path d="M0 0 C0.33 0 0.66 0 1 0 C1.602537 6.98942918 1.602537 6.98942918 -0.11328125 9.8671875 C-1.33745588 11.30861002 -2.66278229 12.66278229 -4 14 C-4.33 13.34 -4.66 12.68 -5 12 C-4.26821134 9.92803369 -3.44100997 7.8891448 -2.5625 5.875 C-2.08941406 4.77929688 -1.61632812 3.68359375 -1.12890625 2.5546875 C-0.75636719 1.71164063 -0.38382812 0.86859375 0 0 Z " fill="#C9BCAC" transform="translate(261,138)"/>
<path d="M0 0 C1.57156655 3.1431331 0.11705576 5.365464 -0.9375 8.625 C-1.31777344 9.81351563 -1.69804687 11.00203125 -2.08984375 12.2265625 C-2.39019531 13.14179687 -2.69054687 14.05703125 -3 15 C-5 12 -5 12 -4.609375 9.58984375 C-4.32578125 8.71457031 -4.0421875 7.83929688 -3.75 6.9375 C-3.47671875 6.05964844 -3.2034375 5.18179688 -2.921875 4.27734375 C-2 2 -2 2 0 0 Z " fill="#B6A495" transform="translate(149,104)"/>
<path d="M0 0 C-1.77945087 4.04420651 -4.39529673 7.46078487 -7 11 C-7.33 10.34 -7.66 9.68 -8 9 C-7.29296875 7.08984375 -7.29296875 7.08984375 -6.1875 4.9375 C-5.83042969 4.22464844 -5.47335938 3.51179688 -5.10546875 2.77734375 C-3.65962149 0.45274833 -2.72767234 0 0 0 Z " fill="#D0CBC4" transform="translate(213,500)"/>
<path d="M0 0 C1.65 0.33 3.3 0.66 5 1 C3.47291037 4.43595166 1.40072955 7.11912454 -1 10 C-1.125 3.375 -1.125 3.375 0 0 Z " fill="#81766D" transform="translate(165,448)"/>
<path d="M0 0 C0.66 0 1.32 0 2 0 C2.33 0.99 2.66 1.98 3 3 C1.8553125 3.8971875 1.8553125 3.8971875 0.6875 4.8125 C-1.3483575 6.46959332 -3.1978279 8.10297674 -5 10 C-4.49890042 5.61537866 -3.01704885 3.1999003 0 0 Z " fill="#AC9E89" transform="translate(165,52)"/>
<path d="M0 0 C0.33 0.99 0.66 1.98 1 3 C0.67 3.66 0.34 4.32 0 5 C0.66 5 1.32 5 2 5 C1.67 6.32 1.34 7.64 1 9 C0.67 8.01 0.34 7.02 0 6 C-1.98 6.33 -3.96 6.66 -6 7 C-5.34 6.01 -4.68 5.02 -4 4 C-3.01 4 -2.02 4 -1 4 C-0.67 2.68 -0.34 1.36 0 0 Z " fill="#CABCAD" transform="translate(259,237)"/>
<path d="M0 0 C0.33 0 0.66 0 1 0 C0.93976735 1.60520004 0.85091401 3.20934327 0.75 4.8125 C0.70359375 5.70582031 0.6571875 6.59914062 0.609375 7.51953125 C0 10 0 10 -4 13 C-3.34 9.7 -2.68 6.4 -2 3 C-1.34 3 -0.68 3 0 3 C0 2.01 0 1.02 0 0 Z " fill="#D8CDC2" transform="translate(107,227)"/>
<path d="M0 0 C0.99 0 1.98 0 3 0 C2.01 3.96 1.02 7.92 0 12 C-0.33 12 -0.66 12 -1 12 C-1.02687279 10.18757948 -1.04633715 8.37504767 -1.0625 6.5625 C-1.07410156 5.55316406 -1.08570313 4.54382813 -1.09765625 3.50390625 C-1 1 -1 1 0 0 Z " fill="#D2C7B9" transform="translate(263,134)"/>
<path d="M0 0 C0.33 0 0.66 0 1 0 C0.85904936 1.6254308 0.71207913 3.25034051 0.5625 4.875 C0.48128906 5.77992188 0.40007812 6.68484375 0.31640625 7.6171875 C0 10 0 10 -1 12 C-1.66 12 -2.32 12 -3 12 C-3.33 10.35 -3.66 8.7 -4 7 C-3.01 6.67 -2.02 6.34 -1 6 C-0.67 4.02 -0.34 2.04 0 0 Z " fill="#6D6358" transform="translate(183,392)"/>
<path d="M0 0 C0.33 0 0.66 0 1 0 C1 5.28 1 10.56 1 16 C-0.98 16.99 -0.98 16.99 -3 18 C-2.68289062 17.31550781 -2.36578125 16.63101562 -2.0390625 15.92578125 C-0.85883043 12.60249621 -0.58802755 9.70245465 -0.375 6.1875 C-0.30023438 5.02605469 -0.22546875 3.86460937 -0.1484375 2.66796875 C-0.09945312 1.78753906 -0.05046875 0.90710938 0 0 Z " fill="#C1B6A9" transform="translate(80,322)"/>
<path d="M0 0 C5.28 0 10.56 0 16 0 C16 0.33 16 0.66 16 1 C13.89981487 1.41644184 11.79458958 1.80753303 9.6875 2.1875 C8.51574219 2.40792969 7.34398437 2.62835938 6.13671875 2.85546875 C5.10160156 2.90316406 4.06648438 2.95085937 3 3 C2.01 2.01 1.02 1.02 0 0 Z " fill="#C1B7A7" transform="translate(288,246)"/>
<path d="M0 0 C0.66 0 1.32 0 2 0 C3.4783226 2.95664519 3.06032783 5.74229737 3 9 C2.01 9 1.02 9 0 9 C0 6.03 0 3.06 0 0 Z " fill="#F4EDE3" transform="translate(253,227)"/>
<path d="M0 0 C0.33 0.66 0.66 1.32 1 2 C-0.2739589 4.03833424 -1.61061923 6.03852126 -3 8 C-3.66 8 -4.32 8 -5 8 C-5.33 8.99 -5.66 9.98 -6 11 C-6.33 10.34 -6.66 9.68 -7 9 C-3.75 2.5 -3.75 2.5 0 0 Z " fill="#D2CEC4" transform="translate(187,533)"/>
<path d="M0 0 C1 4 1 4 1 8 C1.99 8.33 2.98 8.66 4 9 C2.02 9.33 0.04 9.66 -2 10 C-1.34 6.7 -0.68 3.4 0 0 Z " fill="#C5BAAF" transform="translate(329,279)"/>
<path d="M0 0 C4 4 4 4 4.2421875 6.32421875 C4.12101563 7.10410156 3.99984375 7.88398438 3.875 8.6875 C3.76929688 9.47511719 3.66359375 10.26273438 3.5546875 11.07421875 C3.37164062 11.70972656 3.18859375 12.34523437 3 13 C2.01 13.495 2.01 13.495 1 14 C0.67 9.38 0.34 4.76 0 0 Z " fill="#D8CEBE" transform="translate(243,220)"/>
<path d="M0 0 C0 3.36403475 -0.61880053 4.40092917 -2.375 7.1875 C-2.81585938 7.90292969 -3.25671875 8.61835937 -3.7109375 9.35546875 C-4.13632813 9.89816406 -4.56171875 10.44085937 -5 11 C-5.66 11 -6.32 11 -7 11 C-7 8 -7 8 -5.75 6.625 C-5.1725 6.08875 -4.595 5.5525 -4 5 C-2.65263027 3.34466005 -1.31665664 1.67987227 0 0 Z " fill="#B1ABA0" transform="translate(183,536)"/>
<path d="M0 0 C1.21816406 0.03480469 1.21816406 0.03480469 2.4609375 0.0703125 C3.68683594 0.09738281 3.68683594 0.09738281 4.9375 0.125 C5.87722656 0.15980469 5.87722656 0.15980469 6.8359375 0.1953125 C6.5059375 1.1853125 6.1759375 2.1753125 5.8359375 3.1953125 C2.5359375 2.8653125 -0.7640625 2.5353125 -4.1640625 2.1953125 C-2.1640625 0.1953125 -2.1640625 0.1953125 0 0 Z " fill="#D9CFC8" transform="translate(314.1640625,246.8046875)"/>
<path d="M0 0 C0.66 0.66 1.32 1.32 2 2 C2.99 1.67 3.98 1.34 5 1 C4.67 2.98 4.34 4.96 4 7 C3.67 6.01 3.34 5.02 3 4 C1.02 4.99 1.02 4.99 -1 6 C-0.67 4.02 -0.34 2.04 0 0 Z " fill="#A09183" transform="translate(102,221)"/>
<path d="M0 0 C0.66 0 1.32 0 2 0 C3.39195915 4.17587745 1.82323219 6.13474776 0 10 C-0.66 9.67 -1.32 9.34 -2 9 C-1.41196203 5.97580475 -0.77321882 2.98241547 0 0 Z " fill="#C5BBB2" transform="translate(322,96)"/>
<path d="M0 0 C0.33 0.66 0.66 1.32 1 2 C1.66 2 2.32 2 3 2 C3.474375 3.11375 3.94875 4.2275 4.4375 5.375 C5.25306463 7.26710994 6.07856355 9.15712709 7 11 C3.17131081 9.54773858 1.7461047 7.66681987 0 4 C0 2.68 0 1.36 0 0 Z " fill="#BEB6AB" transform="translate(141,550)"/>
<path d="M0 0 C0.33 0 0.66 0 1 0 C1.31563182 5.26053037 0.66590937 8.44573816 -2 13 C-3.18771723 9.57056481 -2.80226223 7.62215325 -1.5625 4.25 C-1.27503906 3.45078125 -0.98757812 2.6515625 -0.69140625 1.828125 C-0.46324219 1.22484375 -0.23507813 0.6215625 0 0 Z " fill="#BCB9A4" transform="translate(170,418)"/>
<path d="M0 0 C1.32 0 2.64 0 4 0 C3.37240135 2.92879371 2.41377341 5.36095629 1 8 C0.67 8 0.34 8 0 8 C0 5.36 0 2.72 0 0 Z " fill="#C1BAB0" transform="translate(189,365)"/>
<path d="M0 0 C1.32 0 2.64 0 4 0 C4.33 1.98 4.66 3.96 5 6 C4.67 5.01 4.34 4.02 4 3 C2.68 3 1.36 3 0 3 C-0.33 3.99 -0.66 4.98 -1 6 C-1.042721 4.33388095 -1.04063832 2.66617115 -1 1 C-0.67 0.67 -0.34 0.34 0 0 Z " fill="#B3A9A0" transform="translate(189,362)"/>
<path d="M0 0 C0.33 0.66 0.66 1.32 1 2 C1.99 2.33 2.98 2.66 4 3 C3.01 4.485 3.01 4.485 2 6 C2 5.01 2 4.02 2 3 C1.34 3 0.68 3 0 3 C-0.66 4.65 -1.32 6.3 -2 8 C-2.33 7.01 -2.66 6.02 -3 5 C-1.5625 2.3125 -1.5625 2.3125 0 0 Z " fill="#D9CBBB" transform="translate(283,157)"/>
<path d="M0 0 C0.33 1.32 0.66 2.64 1 4 C0.01 4.33 -0.98 4.66 -2 5 C-3.20882096 7.00016466 -3.20882096 7.00016466 -4 9 C-4.33 7.68 -4.66 6.36 -5 5 C-4.34 5 -3.68 5 -3 5 C-2.5359375 4.0409375 -2.5359375 4.0409375 -2.0625 3.0625 C-1 1 -1 1 0 0 Z " fill="#D4CABC" transform="translate(269,145)"/>
<path d="M0 0 C1 3 1 3 -0.4375 6.1875 C-1.2109375 7.5796875 -1.2109375 7.5796875 -2 9 C-2.99 8.67 -3.98 8.34 -5 8 C-3.8141763 4.62496331 -2.72426311 2.35277269 0 0 Z " fill="#D0C5B3" transform="translate(293,135)"/>
<path d="M0 0 C1.39195915 4.17587745 -0.17676781 6.13474776 -2 10 C-2.66 10 -3.32 10 -4 10 C-3.52449439 8.51965236 -3.04448784 7.04074979 -2.5625 5.5625 C-2.29566406 4.73878906 -2.02882812 3.91507812 -1.75390625 3.06640625 C-1 1 -1 1 0 0 Z " fill="#988F86" transform="translate(170,425)"/>
<path d="M0 0 C0.6875 1.6875 0.6875 1.6875 1 4 C-0.3125 6.75 -0.3125 6.75 -2 9 C-2.66 9 -3.32 9 -4 9 C-2.94124926 5.59687262 -1.99097846 2.98646769 0 0 Z " fill="#776D60" transform="translate(169,523)"/>
<path d="M0 0 C0.33 1.32 0.66 2.64 1 4 C-1.97 6.475 -1.97 6.475 -5 9 C-3.7508258 5.54074837 -2.32472205 2.85306797 0 0 Z " fill="#B1A99D" transform="translate(197,516)"/>
<path d="M0 0 C0.66 0 1.32 0 2 0 C2.125 5.75 2.125 5.75 1 8 C0.34 8 -0.32 8 -1 8 C-0.67 5.36 -0.34 2.72 0 0 Z " fill="#736A5F" transform="translate(175,418)"/>
<path d="M0 0 C0.33 0 0.66 0 1 0 C1.125 2.375 1.125 2.375 1 5 C0.34 5.66 -0.32 6.32 -1 7 C-1.99 6.67 -2.98 6.34 -4 6 C-2.69593116 3.98079663 -1.36176581 1.98075027 0 0 Z " fill="#B6ABA0" transform="translate(287,388)"/>
<path d="M0 0 C1.46726798 3.81489674 0.43336419 6.29011622 -1 10 C-1.33 10 -1.66 10 -2 10 C-2.25 3.375 -2.25 3.375 0 0 Z " fill="#726B61" transform="translate(192,377)"/>
<path d="M0 0 C0.99 0.66 1.98 1.32 3 2 C1.515 4.475 1.515 4.475 0 7 C-0.99 6.34 -1.98 5.68 -3 5 C-2.01 3.35 -1.02 1.7 0 0 Z " fill="#C5BBB1" transform="translate(354,296)"/>
<path d="M0 0 C0.33 0 0.66 0 1 0 C1.33 3.3 1.66 6.6 2 10 C0.02 10.99 0.02 10.99 -2 12 C-1.34 8.04 -0.68 4.08 0 0 Z " fill="#898276" transform="translate(162,549)"/>
<path d="M0 0 C0.66 0.33 1.32 0.66 2 1 C1.67 2.65 1.34 4.3 1 6 C0.34 6 -0.32 6 -1 6 C-1 6.99 -1 7.98 -1 9 C-1.66 9 -2.32 9 -3 9 C-2.01 6.03 -1.02 3.06 0 0 Z " fill="#B6ADA1" transform="translate(214,491)"/>
<path d="M0 0 C6.75 2.75 6.75 2.75 9 5 C5.26512223 4.5020163 3.18762365 4.12508244 0 2 C0 1.34 0 0.68 0 0 Z " fill="#867A71" transform="translate(84,348)"/>
<path d="M0 0 C0.99 0 1.98 0 3 0 C2.01 3.3 1.02 6.6 0 10 C-1.07193479 6.78419562 -1.14636054 4.36629251 -1 1 C-0.67 0.67 -0.34 0.34 0 0 Z " fill="#C0B4A8" transform="translate(109,230)"/>
<path d="M0 0 C0.66 0 1.32 0 2 0 C2 2.66666667 2 5.33333333 2 8 C1.01 8 0.02 8 -1 8 C-0.67 5.36 -0.34 2.72 0 0 Z " fill="#AC9E8F" transform="translate(132,160)"/>
<path d="M0 0 C0.99 0.33 1.98 0.66 3 1 C2.67 2.65 2.34 4.3 2 6 C0.68 5.67 -0.64 5.34 -2 5 C-1.34 3.35 -0.68 1.7 0 0 Z " fill="#A9998C" transform="translate(152,75)"/>
<path d="M0 0 C0.12375 0.639375 0.2475 1.27875 0.375 1.9375 C0.58125 2.618125 0.7875 3.29875 1 4 C1.66 4.33 2.32 4.66 3 5 C1.68 5.99 0.36 6.98 -1 8 C-1.04241723 5.66705225 -1.04092937 3.33297433 -1 1 C-0.67 0.67 -0.34 0.34 0 0 Z " fill="#837667" transform="translate(83,330)"/>
<path d="M0 0 C0.33 0.66 0.66 1.32 1 2 C0.22265625 4.1640625 0.22265625 4.1640625 -0.9375 6.625 C-1.31777344 7.44226563 -1.69804687 8.25953125 -2.08984375 9.1015625 C-2.39019531 9.72804688 -2.69054687 10.35453125 -3 11 C-3.83583327 8.62392051 -4.1842383 7.45550373 -3.22265625 5.078125 C-1.61132812 2.5390625 -1.61132812 2.5390625 0 0 Z " fill="#CBBFB0" transform="translate(276,104)"/>
</svg>
